<svg xmlns="http://www.w3.org/2000/svg" viewBox="0 0 414 414" role="img" aria-label="Clube Náutico da Praia de Mira">
<g transform="translate(0.000000,414.000000) scale(0.125000,-0.125000)"
fill="#1f2f58" stroke="none">
<path d="M1771 3257 c-67 -49 -150 -163 -167 -231 -3 -12 -10 -27 -15 -34 -40
-48 -58 -350 -26 -436 76 -204 191 -338 283 -330 40 3 38 -24 38 537 0 478 0
478 -22 498 -30 25 -53 24 -91 -4z"/>
<path d="M1482 3228 c-23 -15 -45 -28 -50 -28 -4 0 -21 -12 -38 -26 -16 -15
-57 -47 -90 -72 -184 -141 -280 -277 -337 -479 -105 -377 -87 -489 109 -672
151 -140 223 -138 472 18 18 11 52 29 76 41 24 12 49 25 56 29 7 4 44 23 84
43 101 50 101 51 -32 139 -120 79 -206 172 -234 251 -9 24 -24 64 -34 88 -28
67 -32 253 -9 337 9 33 17 66 17 74 0 8 5 26 11 40 7 14 16 38 20 53 4 15 19
58 32 94 37 101 22 120 -53 70z"/>
<path d="M1956 3230 c-2 -5 -6 -138 -8 -294 -2 -156 -5 -295 -6 -308 -8 -128
4 -1483 13 -1496 14 -19 66 2 77 32 11 29 19 2013 8 2038 -14 30 -76 51 -84
28z"/>
<path d="M2124 3175 c-8 -23 -8 -207 0 -230 6 -19 8 -19 67 -15 74 6 221 -7
266 -22 18 -7 43 -12 56 -12 12 0 35 -6 50 -13 29 -14 53 -11 53 7 0 21 -142
144 -192 168 -7 4 -32 17 -56 31 -183 102 -234 120 -244 86z"/>
<path d="M1059 3133 c-40 -14 -81 -29 -92 -34 -10 -5 -37 -17 -59 -27 -71 -30
-156 -74 -182 -93 -228 -168 -343 -286 -418 -426 -10 -18 -22 -37 -26 -43 -66
-82 -149 -308 -190 -514 -6 -31 -15 -73 -19 -93 -22 -98 -18 -467 7 -539 4
-13 15 -54 24 -91 26 -104 86 -209 120 -209 22 0 23 40 24 615 0 292 2 534 4
537 18 29 218 51 304 34 59 -12 116 -27 148 -39 83 -31 84 -29 91 126 4 88 10
135 21 168 9 26 16 55 16 65 0 22 38 123 70 186 46 90 57 111 64 115 4 3 17
21 28 41 20 33 42 61 100 124 114 123 106 145 -35 97z"/>
<path d="M2141 2843 c-12 -13 -2 -35 44 -91 45 -55 71 -91 171 -230 20 -28 36
-55 36 -61 0 -5 6 -18 14 -29 21 -30 25 -198 6 -275 -20 -82 -61 -184 -129
-319 -32 -65 -59 -122 -59 -127 0 -5 -8 -19 -17 -32 -21 -30 -30 -87 -14 -87
10 0 132 59 246 119 16 9 34 18 41 20 7 3 26 14 44 24 18 11 66 37 108 59 42
22 105 55 140 74 35 19 75 40 88 46 13 7 35 20 48 30 13 9 40 25 60 35 64 32
81 83 56 170 -4 15 -8 38 -8 53 0 193 -227 461 -471 554 -126 48 -380 90 -404
67z"/>
<path d="M2133 2547 c-7 -16 -6 -640 0 -656 6 -15 30 -14 44 3 16 19 79 143
79 156 0 5 5 20 12 33 24 47 39 170 28 232 -23 125 -140 291 -163 232z"/>
<path d="M428 2161 c-73 -18 -69 11 -66 -433 2 -372 2 -372 25 -375 12 -1 28
3 36 9 13 12 120 49 166 58 27 5 188 -16 210 -27 7 -4 29 -10 49 -12 20 -3 49
-11 64 -16 15 -6 50 -17 76 -25 26 -8 96 -34 155 -58 143 -56 245 -55 357 4
52 27 52 27 52 258 1 254 5 245 -106 207 -133 -46 -344 -19 -398 51 -134 174
-329 313 -480 342 -20 4 -49 11 -64 16 -31 9 -41 9 -76 1z"/>
<path d="M3114 1933 c-37 -20 -82 -45 -102 -56 -19 -12 -41 -21 -48 -21 -7 0
-15 -5 -17 -12 -3 -7 -9 -12 -14 -12 -5 0 -42 -17 -83 -38 -40 -21 -139 -72
-220 -112 -379 -194 -361 -173 -278 -332 9 -16 16 -34 16 -40 0 -33 154 -252
208 -295 19 -15 53 -44 75 -64 45 -40 109 -80 194 -119 84 -39 89 -41 111 -31
19 9 25 17 94 123 42 65 105 202 113 248 4 17 11 41 16 52 6 11 16 49 23 84 8
35 20 91 27 124 16 74 25 364 13 417 -33 136 -31 135 -128 84z"/>
<path d="M1862 1951 c-8 -4 -24 -17 -36 -28 -12 -12 -35 -29 -50 -39 -59 -38
-104 -90 -104 -122 -2 -539 -1 -529 -65 -546 -16 -5 -40 -14 -52 -20 -13 -7
-27 -12 -33 -12 -5 0 -21 -5 -36 -11 -14 -7 -38 -16 -52 -21 -71 -27 -30 -112
86 -181 97 -57 274 -39 352 36 38 37 40 61 40 563 0 400 -1 410 -50 381z"/>
<path d="M2188 1222 c-44 -73 -173 -209 -220 -233 -15 -7 -39 -21 -52 -29 -73
-47 -184 -84 -278 -93 -118 -11 -302 86 -350 184 -42 89 -62 93 -153 32 -69
-47 -116 -76 -151 -91 -11 -5 -31 -15 -44 -21 -32 -14 -136 -50 -176 -60 -18
-5 -70 -11 -116 -14 -98 -6 -104 -18 -72 -161 59 -269 77 -309 140 -326 141
-38 312 18 446 147 51 49 93 75 120 75 4 0 39 -30 77 -66 206 -198 572 -180
776 37 33 35 56 19 134 -93 99 -144 152 -128 355 106 24 28 56 64 70 79 54 59
50 66 -102 189 -154 125 -282 268 -340 379 -17 34 -19 33 -64 -41z"/>
<path d="M589 1248 c-90 -24 -177 -98 -205 -173 -5 -11 -17 -32 -28 -47 -64
-83 -73 -188 -20 -236 2 -2 16 -22 31 -44 72 -108 97 -92 97 63 0 141 -7 133
120 133 65 0 114 4 139 12 22 7 54 12 71 12 17 0 41 5 53 11 12 7 36 14 53 17
18 3 37 11 44 16 7 6 25 16 40 22 40 17 98 72 95 90 -3 16 -5 18 -90 56 -102
47 -142 60 -201 68 -109 16 -142 16 -199 0z"/>
<path d="M1223 414 c-29 -24 -83 -57 -179 -110 -114 -63 -113 -73 16 -138 132
-66 199 -87 372 -115 105 -16 314 -16 395 1 31 7 68 12 81 12 29 0 166 34 204
50 15 7 44 18 64 26 77 28 152 71 152 85 0 9 -20 29 -50 50 -57 41 -72 54
-109 100 -40 49 -46 49 -164 -9 -241 -117 -407 -124 -573 -24 -24 14 -48 26
-53 26 -5 0 -13 5 -19 12 -36 44 -105 61 -137 34z"/>
</g>
<g transform="translate(0.000000,414.000000) scale(0.125000,-0.125000)"
fill="#466988" stroke="none">
<path d="M1771 3257 c-67 -49 -150 -163 -167 -231 -3 -12 -10 -27 -15 -34 -40
-48 -58 -350 -26 -436 76 -204 191 -338 283 -330 40 3 38 -24 38 537 0 478 0
478 -22 498 -30 25 -53 24 -91 -4z m95 -39 c2 -12 3 -225 1 -474 -2 -249 -3
-464 -3 -478 0 -32 -14 -34 -68 -7 -37 19 -116 88 -116 101 0 4 -5 12 -11 18
-106 106 -136 443 -56 627 84 195 233 320 253 213z"/>
<path d="M1482 3228 c-23 -15 -45 -28 -50 -28 -4 0 -21 -12 -38 -26 -16 -15
-57 -47 -90 -72 -184 -141 -280 -277 -337 -479 -105 -377 -87 -489 109 -672
151 -140 223 -138 472 18 18 11 52 29 76 41 24 12 49 25 56 29 7 4 44 23 84
43 101 50 101 51 -32 139 -120 79 -206 172 -234 251 -9 24 -24 64 -34 88 -28
67 -32 253 -9 337 9 33 17 66 17 74 0 8 5 26 11 40 7 14 16 38 20 53 4 15 19
58 32 94 37 101 22 120 -53 70z m22 -80 c-15 -18 -25 -14 -19 7 4 17 2 19 -12
16 -10 -3 -17 -1 -17 4 0 5 9 9 20 9 10 0 22 5 26 10 4 7 7 2 9 -12 1 -13 -2
-28 -7 -34z m-56 21 c0 -4 -5 -9 -12 -12 -7 -3 -12 0 -12 7 0 7 5 12 12 12 7
0 12 -3 12 -7z m-80 -77 c-5 -7 -13 -12 -17 -12 -3 0 -4 5 -2 12 3 7 10 12 17
12 10 0 10 -2 2 -12z m105 -31 c-7 -6 -9 -2 -9 12 0 26 11 38 15 15 1 -10 -2
-22 -6 -27z m-17 -37 c0 -9 -5 -16 -12 -16 -22 0 -14 24 10 31 1 1 2 -6 2 -15z
m-184 -4 c0 -7 -5 -12 -12 -12 -7 0 -12 5 -12 12 0 7 5 12 12 12 7 0 12 -5 12
-12z m-32 -32 c0 -22 -25 -52 -43 -52 -6 0 -13 -6 -16 -13 -3 -6 -9 -10 -13
-7 -14 9 -9 17 24 39 18 12 30 25 28 29 -6 9 2 24 12 24 5 0 8 -9 8 -20z m208
-6 c0 -13 -2 -15 -9 -8 -5 5 -6 13 -3 17 8 14 12 11 12 -9z m-296 -82 c0 -7
-4 -12 -8 -12 -4 0 -8 5 -8 12 0 7 4 12 8 12 4 0 8 -5 8 -12z m-44 -75 c-6
-19 -20 -23 -20 -7 0 12 17 32 22 26 2 -1 1 -10 -2 -19z m-77 -139 c-6 -12
-11 -14 -13 -8 -5 15 5 36 14 30 5 -3 5 -11 -1 -22z m417 -160 c0 -13 -2 -15
-9 -8 -5 5 -6 13 -3 17 8 14 12 11 12 -9z m-479 -74 c-1 -25 -6 -42 -10 -39
-4 2 -6 19 -4 38 2 18 4 36 5 39 2 31 11 -5 9 -38z m511 -8 c-1 -19 -11 -5
-19 28 -6 19 -5 19 7 4 6 -8 12 -22 12 -32z m26 -78 c-8 -7 -10 -5 -10 10 0
15 2 17 10 10 7 -8 7 -12 0 -20z m-554 -86 c0 -8 -5 -16 -12 -19 -10 -4 -12 3
-12 37 0 42 0 42 12 19 7 -13 12 -29 12 -37z m591 36 c2 -13 1 -14 -10 -5 -15
13 -17 28 -3 23 6 -2 11 -10 13 -18z m44 -13 c12 -14 13 -18 4 -24 -8 -5 -12
-2 -14 9 -1 9 -5 16 -10 16 -4 0 -7 4 -7 8 0 13 11 9 27 -9z m77 -71 c0 -4 -5
-8 -12 -8 -7 0 -12 4 -12 8 0 4 5 8 12 8 7 0 12 -4 12 -8z m-704 -49 c0 -4 9
-22 20 -40 12 -18 19 -38 18 -46 -3 -11 -4 -11 -10 3 -4 9 -13 25 -21 36 -18
25 -29 69 -16 61 5 -3 9 -9 9 -14z m785 -5 c53 -36 55 -43 17 -67 -60 -37
-106 -50 -106 -30 0 5 7 7 17 4 11 -3 23 2 36 15 11 11 27 24 36 28 15 9 14
10 -15 33 -40 32 -39 31 -21 31 8 0 24 -6 36 -14z m-713 -90 c0 -4 -4 -8 -8
-8 -13 0 -9 -17 6 -28 8 -6 11 -13 8 -16 -10 -11 -30 13 -30 37 0 15 4 23 12
23 7 0 12 -4 12 -8z m572 -63 c-21 -20 -92 -32 -76 -13 6 7 15 11 20 9 5 -2
21 3 36 11 33 17 42 14 20 -7z m-452 -93 c6 -7 6 -12 2 -12 -4 0 -13 5 -18 12
-6 7 -6 12 -2 12 4 0 13 -5 18 -12z m72 -23 c0 -2 2 -10 5 -17 5 -13 4 -13
-20 -1 -30 16 -31 21 -5 21 11 0 20 -2 20 -3z"/>
<path d="M1956 3230 c-2 -5 -6 -138 -8 -294 -2 -156 -5 -295 -6 -308 -8 -128
4 -1483 13 -1496 14 -19 66 2 77 32 11 29 19 2013 8 2038 -14 30 -76 51 -84
28z m56 -27 c17 -17 11 -2021 -6 -2041 -41 -50 -42 -46 -38 1904 0 161 5 176
44 137z"/>
<path d="M2124 3175 c-8 -23 -8 -207 0 -230 6 -19 8 -19 67 -15 74 6 221 -7
266 -22 18 -7 43 -12 56 -12 12 0 35 -6 50 -13 29 -14 53 -11 53 7 0 21 -142
144 -192 168 -7 4 -32 17 -56 31 -183 102 -234 120 -244 86z m108 -35 c24 -12
58 -30 76 -41 18 -10 41 -23 52 -28 70 -34 147 -89 198 -142 24 -25 21 -27
-27 -17 -21 5 -59 12 -83 17 -24 4 -77 13 -118 20 -68 12 -98 12 -156 -2 -28
-6 -39 19 -34 75 2 21 3 63 4 93 0 64 5 65 88 25z"/>
<path d="M1059 3133 c-40 -14 -81 -29 -92 -34 -10 -5 -37 -17 -59 -27 -71 -30
-156 -74 -182 -93 -228 -168 -343 -286 -418 -426 -10 -18 -22 -37 -26 -43 -66
-82 -149 -308 -190 -514 -6 -31 -15 -73 -19 -93 -22 -98 -18 -467 7 -539 4
-13 15 -54 24 -91 26 -104 86 -209 120 -209 22 0 23 40 24 615 0 292 2 534 4
537 18 29 218 51 304 34 59 -12 116 -27 148 -39 83 -31 84 -29 91 126 4 88 10
135 21 168 9 26 16 55 16 65 0 22 38 123 70 186 46 90 57 111 64 115 4 3 17
21 28 41 20 33 42 61 100 124 114 123 106 145 -35 97z m77 -16 c0 -5 -15 -26
-34 -46 -78 -82 -106 -120 -191 -255 -73 -115 -128 -317 -140 -507 -7 -103 -4
-102 -96 -70 -133 45 -316 50 -404 11 -49 -21 -50 -28 -46 -306 5 -441 0 -850
-11 -846 -36 12 -100 182 -123 330 -28 177 -14 479 29 616 4 13 15 53 25 88
51 191 159 413 247 509 17 19 32 39 32 45 0 5 5 12 10 16 6 3 22 20 37 38 41
47 135 126 261 217 13 10 46 29 72 42 26 14 53 28 60 32 25 14 118 53 185 77
59 21 87 24 87 9z"/>
<path d="M2141 2843 c-12 -13 -2 -35 44 -91 45 -55 71 -91 171 -230 20 -28 36
-55 36 -61 0 -5 6 -18 14 -29 21 -30 25 -198 6 -275 -20 -82 -61 -184 -129
-319 -32 -65 -59 -122 -59 -127 0 -5 -8 -19 -17 -32 -21 -30 -30 -87 -14 -87
10 0 132 59 246 119 16 9 34 18 41 20 7 3 26 14 44 24 18 11 66 37 108 59 42
22 105 55 140 74 35 19 75 40 88 46 13 7 35 20 48 30 13 9 40 25 60 35 64 32
81 83 56 170 -4 15 -8 38 -8 53 0 193 -227 461 -471 554 -126 48 -380 90 -404
67z m174 -42 c18 -7 24 -41 7 -41 -6 0 -9 3 -7 7 3 4 -4 11 -15 17 -30 16 -17
30 15 17z m-65 -23 c7 -13 11 -31 8 -44 -3 -15 0 -23 9 -27 14 -5 18 -27 5
-27 -4 0 -8 3 -8 8 0 4 -8 15 -18 24 -18 17 -18 17 -2 29 16 11 16 12 -2 16
-10 3 -18 8 -18 12 0 5 -4 5 -9 2 -5 -3 -12 0 -15 6 -4 6 -3 13 2 17 19 11 35
6 48 -16z m394 -83 c-5 -7 -28 0 -28 9 0 4 7 5 16 2 9 -2 14 -7 12 -11z m34
-21 c5 -15 -12 -12 -17 3 -3 7 -1 11 4 9 6 -2 11 -7 13 -12z m-359 -30 c2 -13
1 -14 -10 -5 -15 13 -17 28 -3 23 6 -2 11 -10 13 -18z m671 -597 c-2 -6 -19
-17 -38 -25 -34 -14 -35 -14 -20 0 34 29 64 42 58 25z m-454 -255 c-11 -9 -23
-16 -26 -16 -11 0 4 23 17 27 26 7 29 4 9 -11z m-249 -65 c8 -12 8 -19 1 -26
-10 -10 -24 6 -24 29 0 19 10 18 23 -3z m129 5 c0 -7 -7 -12 -16 -12 -18 0
-28 13 -14 19 19 7 30 5 30 -7z m-152 -44 c0 -9 -16 -19 -21 -13 -6 5 4 21 13
21 5 0 8 -3 8 -8z"/>
<path d="M2133 2547 c-7 -16 -6 -640 0 -656 6 -15 30 -14 44 3 16 19 79 143
79 156 0 5 5 20 12 33 24 47 39 170 28 232 -23 125 -140 291 -163 232z m57
-46 c60 -66 99 -193 88 -288 -11 -97 -96 -310 -119 -297 -9 6 -10 612 0 612 3
0 17 -12 31 -27z"/>
<path d="M428 2161 c-73 -18 -69 11 -66 -433 2 -372 2 -372 25 -375 12 -1 28
3 36 9 13 12 120 49 166 58 27 5 188 -16 210 -27 7 -4 29 -10 49 -12 20 -3 49
-11 64 -16 15 -6 50 -17 76 -25 26 -8 96 -34 155 -58 143 -56 245 -55 357 4
52 27 52 27 52 258 1 254 5 245 -106 207 -133 -46 -344 -19 -398 51 -134 174
-329 313 -480 342 -20 4 -49 11 -64 16 -31 9 -41 9 -76 1z m90 -37 c9 -7 22
-10 29 -7 6 2 14 1 16 -4 9 -14 -57 -20 -76 -6 -23 16 -32 16 -26 1 3 -7 -2
-13 -16 -17 -16 -4 -21 -10 -21 -27 0 -13 -4 -24 -9 -26 -7 -2 -8 -8 -3 -18
10 -25 9 -63 -2 -75 -12 -12 -11 -19 -14 93 -2 70 -1 83 11 90 20 12 91 9 111
-4z m114 -28 c0 -4 -4 -8 -10 -8 -7 0 -6 -3 2 -8 10 -6 10 -8 -2 -12 -19 -8
-60 19 -45 29 15 9 55 9 55 -1z m80 -32 c10 -6 9 -8 -6 -8 -9 0 -19 4 -22 8
-6 10 12 10 28 0z m46 -30 c2 -6 -3 -10 -12 -10 -8 0 -15 6 -15 12 0 15 22 13
27 -2z m-38 -20 c0 -10 -13 -7 -33 10 -19 15 -19 15 7 6 14 -5 26 -12 26 -16z
m100 -27 c29 -25 30 -27 9 -19 -12 4 -26 6 -31 3 -6 -4 -7 -1 -3 8 4 10 0 16
-11 19 -9 2 -14 7 -11 11 6 11 13 8 47 -22z m79 -71 c7 -11 13 -24 13 -29 0
-11 -30 14 -41 35 -12 22 13 17 28 -6z m-491 -66 c0 -16 -2 -19 -7 -11 -4 6
-6 16 -3 22 6 17 10 13 10 -11z m606 -63 c-8 -8 -21 5 -35 32 -13 25 -13 25
13 -1 15 -15 24 -28 22 -31z m462 -77 c-7 -4 -16 -5 -18 -2 -7 7 15 20 25 14
4 -2 1 -8 -7 -12z m-348 2 c0 -4 -5 -8 -12 -8 -7 0 -12 4 -12 8 0 4 5 8 12 8
7 0 12 -4 12 -8z m-700 -264 c15 -8 22 -8 31 -1 7 6 16 8 20 6 4 -3 10 -2 13
3 3 4 15 8 28 8 13 0 25 4 28 8 6 9 104 2 124 -9 12 -6 -5 -9 -80 -11 -27 0
-46 -6 -74 -21 -8 -4 -18 -7 -22 -7 -5 0 -24 -7 -42 -16 -56 -27 -65 -23 -59
26 3 23 6 96 7 162 2 120 2 120 4 -9 2 -127 3 -129 22 -139z m352 0 c3 -4 17
-8 32 -8 19 0 30 -5 36 -16 9 -18 -10 -24 -20 -7 -3 4 -13 7 -21 4 -14 -3 -60
7 -71 17 -5 4 17 18 30 18 5 0 11 -4 14 -8z m136 -40 c16 -18 7 -21 -24 -7
-15 7 -18 12 -10 16 15 10 18 9 34 -9z m136 -8 c3 -4 -3 -8 -12 -8 -9 0 -15 4
-12 8 3 4 8 8 12 8 4 0 9 -4 12 -8z m-28 -24 c8 -15 7 -16 -14 -11 -33 8 -39
13 -21 20 23 9 26 8 35 -9z m484 -31 c2 -19 -1 -27 -12 -33 -19 -10 -21 0 -7
39 10 30 15 28 19 -6z m-365 -7 c14 -8 25 -16 25 -20 0 -12 -15 -13 -27 -2 -6
7 -17 12 -23 12 -7 0 -17 5 -22 12 -14 17 15 16 47 -2z m125 -58 c13 -6 12 -7
-10 -7 -14 -1 -27 3 -30 7 -6 10 18 10 40 0z m124 0 c-16 -10 -50 -10 -44 0 3
4 16 8 30 8 20 0 23 -2 14 -8z"/>
<path d="M3114 1933 c-37 -20 -82 -45 -102 -56 -19 -12 -41 -21 -48 -21 -7 0
-15 -5 -17 -12 -3 -7 -9 -12 -14 -12 -5 0 -42 -17 -83 -38 -40 -21 -139 -72
-220 -112 -379 -194 -361 -173 -278 -332 9 -16 16 -34 16 -40 0 -33 154 -252
208 -295 19 -15 53 -44 75 -64 45 -40 109 -80 194 -119 84 -39 89 -41 111 -31
19 9 25 17 94 123 42 65 105 202 113 248 4 17 11 41 16 52 6 11 16 49 23 84 8
35 20 91 27 124 16 74 25 364 13 417 -33 136 -31 135 -128 84z m84 1 c24 -29
34 -284 18 -436 -23 -204 -97 -434 -184 -566 -8 -13 -21 -36 -29 -50 -18 -36
-58 -68 -78 -63 -28 6 -74 25 -86 34 -6 5 -38 23 -71 40 -33 17 -62 33 -64 35
-2 3 -40 38 -84 77 -44 40 -91 88 -104 107 -13 18 -32 43 -41 55 -34 43 -131
231 -131 255 0 4 -6 13 -12 18 -8 6 -12 20 -10 34 3 29 -14 20 411 237 54 28
102 55 107 62 6 6 15 11 20 11 13 0 95 42 99 50 1 3 7 6 12 6 9 0 58 25 153
77 54 29 62 31 74 17z"/>
<path d="M1862 1951 c-8 -4 -24 -17 -36 -28 -12 -12 -35 -29 -50 -39 -59 -38
-104 -90 -104 -122 -2 -539 -1 -529 -65 -546 -16 -5 -40 -14 -52 -20 -13 -7
-27 -12 -33 -12 -5 0 -21 -5 -36 -11 -14 -7 -38 -16 -52 -21 -71 -27 -30 -112
86 -181 97 -57 274 -39 352 36 38 37 40 61 40 563 0 400 -1 410 -50 381z m27
-459 c-1 -472 0 -460 -51 -489 -128 -75 -280 -58 -384 43 -51 50 -51 69 0 91
21 9 49 21 63 28 14 6 32 11 40 11 8 0 22 6 31 12 8 7 23 12 32 12 58 0 66 28
72 267 3 122 4 236 2 254 -8 54 5 79 63 123 29 22 67 52 85 66 49 40 48 52 47
-418z"/>
<path d="M2188 1222 c-44 -73 -173 -209 -220 -233 -15 -7 -39 -21 -52 -29 -73
-47 -184 -84 -278 -93 -118 -11 -302 86 -350 184 -42 89 -62 93 -153 32 -69
-47 -116 -76 -151 -91 -11 -5 -31 -15 -44 -21 -32 -14 -136 -50 -176 -60 -18
-5 -70 -11 -116 -14 -98 -6 -104 -18 -72 -161 59 -269 77 -309 140 -326 141
-38 312 18 446 147 51 49 93 75 120 75 4 0 39 -30 77 -66 206 -198 572 -180
776 37 33 35 56 19 134 -93 99 -144 152 -128 355 106 24 28 56 64 70 79 54 59
50 66 -102 189 -154 125 -282 268 -340 379 -17 34 -19 33 -64 -41z m52 -30 c0
-5 -7 -8 -16 -8 -18 0 -22 13 -6 18 12 5 22 0 22 -10z m47 -44 c18 -21 23 -44
9 -44 -4 0 -8 7 -8 16 0 10 -8 19 -20 24 -11 4 -20 11 -20 16 0 15 21 8 39
-12z m-1039 -89 c0 -9 -8 -10 -34 -6 -47 7 -54 16 -21 30 29 13 55 1 55 -24z
m1110 8 c-6 -5 -30 6 -30 14 0 4 8 4 17 -1 9 -5 15 -11 13 -13z m-1227 -47
c-13 -13 -27 -20 -38 -18 -15 2 -14 4 11 20 38 24 52 23 27 -2z m1274 -6 c20
-19 25 -38 10 -38 -5 0 -10 7 -13 16 -2 8 -11 18 -19 20 -8 3 -15 8 -15 13 0
13 17 8 37 -11z m-1077 -61 c0 -5 -5 -9 -12 -9 -7 0 -12 5 -12 12 0 6 -9 18
-20 25 -11 7 -20 20 -20 28 0 13 6 10 32 -16 18 -17 32 -36 32 -40z m-256 23
c2 0 -3 -4 -11 -9 -11 -7 -18 -6 -28 5 -13 13 -3 14 39 4z m-88 -24 c0 -10
-23 -20 -29 -14 -7 7 5 22 17 22 7 0 12 -4 12 -8z m-40 -24 c0 -4 -9 -8 -20
-8 -11 0 -20 -4 -20 -8 0 -4 -6 -8 -13 -8 -11 0 -10 3 5 16 19 17 48 22 48 8z
m424 -6 c0 -4 13 -11 28 -17 15 -5 28 -13 28 -18 0 -4 8 -7 18 -7 28 0 53 -20
41 -33 -8 -7 -13 -6 -23 4 -8 7 -25 19 -39 25 -14 6 -30 15 -37 19 -7 4 -18
10 -26 12 -17 5 -19 21 -2 21 7 0 12 -3 12 -6z m1160 -28 c0 -10 -18 -3 -22 9
-2 5 2 7 9 4 7 -3 13 -8 13 -13z m-1676 -15 c8 -12 -1 -17 -20 -11 -9 3 -14 8
-12 13 7 10 26 9 32 -2z m1708 -12 c0 -6 -5 -11 -12 -11 -7 0 -12 7 -12 16 0
10 4 14 12 11 7 -3 12 -10 12 -16z m-1784 0 c0 -11 -6 -12 -34 -9 -19 2 -43 1
-54 -2 -19 -6 -19 -6 -2 -7 27 -1 30 -17 3 -17 -13 0 -25 5 -28 12 -7 19 -29
14 -29 -6 0 -10 -7 -22 -14 -27 -13 -8 -15 -7 -11 15 2 14 -1 26 -7 30 -16 10
31 20 109 22 59 3 67 1 67 -11z m1051 5 c-5 -5 -22 -10 -40 -12 -31 -4 -31 -4
-7 8 29 14 59 16 47 4z m-255 -36 c14 -11 13 -12 -14 -12 -29 0 -40 11 -20 19
15 6 17 5 34 -7z m1055 -11 c13 -13 20 -28 17 -32 -3 -6 3 -9 15 -9 24 0 36
-15 20 -25 -23 -15 -42 -4 -51 28 -6 20 -15 34 -26 38 -23 8 -30 23 -12 23 8
0 25 -11 37 -23z m-1407 -183 c-7 -8 -28 6 -28 19 0 12 1 12 16 -1 9 -8 14
-16 12 -18z m172 -65 c0 -4 -26 17 -34 27 -3 4 -6 13 -6 20 0 6 9 -1 20 -16
11 -15 20 -29 20 -31z m1184 32 c0 -4 -6 -9 -13 -12 -19 -8 -22 -6 -11 7 11
13 24 16 24 5z m-1426 -17 c-5 -9 -13 -16 -16 -16 -4 0 -3 7 2 16 5 9 12 16
16 16 5 0 4 -7 -2 -16z m887 -22 c-2 -8 -8 -15 -16 -17 -17 -3 -17 6 1 20 18
13 17 13 15 -3z m-911 -12 c-5 -15 -30 -17 -30 -3 0 8 7 13 17 13 9 0 15 -4
13 -10z m1374 -30 c-18 -17 -39 -31 -48 -31 -14 0 -13 1 5 11 12 6 23 17 26
24 2 6 10 12 17 12 6 0 12 4 12 8 0 4 4 8 10 8 5 0 -5 -14 -22 -32z m-1026 1
c11 -6 23 -16 25 -22 5 -13 -8 -15 -15 -3 -3 5 -14 12 -25 16 -10 4 -19 12
-19 16 0 5 3 8 6 6 3 -1 16 -7 28 -13z m518 7 c0 -4 -5 -8 -12 -8 -7 0 -12 4
-12 8 0 4 5 8 12 8 7 0 12 -4 12 -8z m-1312 -28 c0 -11 -4 -20 -8 -20 -4 0 -8
11 -8 24 0 15 3 23 8 20 4 -3 8 -14 8 -24z m872 -20 c10 -6 9 -8 -6 -8 -10 0
-18 4 -18 8 0 10 8 10 24 0z m-563 -12 c-3 -10 -34 -15 -50 -9 -7 3 -10 8 -8
12 6 9 61 7 58 -3z m611 -4 c10 -6 9 -8 -6 -8 -9 0 -19 4 -22 8 -6 10 12 10
28 0z m224 0 c0 -4 -13 -8 -30 -7 -24 0 -27 1 -14 7 22 10 44 10 44 0z m-1101
-12 c3 -7 0 -12 -7 -12 -7 0 -12 5 -12 12 0 7 3 12 7 12 4 0 9 -5 12 -12z m57
-11 c5 -5 21 -9 36 -11 19 -2 14 -4 -18 -5 -42 -1 -54 4 -41 18 8 7 14 6 23
-2z"/>
<path d="M589 1248 c-90 -24 -177 -98 -205 -173 -5 -11 -17 -32 -28 -47 -64
-83 -73 -188 -20 -236 2 -2 16 -22 31 -44 72 -108 97 -92 97 63 0 141 -7 133
120 133 65 0 114 4 139 12 22 7 54 12 71 12 17 0 41 5 53 11 12 7 36 14 53 17
18 3 37 11 44 16 7 6 25 16 40 22 40 17 98 72 95 90 -3 16 -5 18 -90 56 -102
47 -142 60 -201 68 -109 16 -142 16 -199 0z m291 -45 c46 -16 95 -35 108 -43
13 -8 34 -16 46 -19 14 -3 22 -11 22 -19 0 -15 -59 -66 -76 -66 -6 0 -20 -8
-33 -18 -12 -10 -41 -22 -63 -27 -22 -5 -67 -15 -100 -23 -36 -8 -113 -16
-192 -19 -162 -6 -154 2 -150 -149 1 -79 0 -104 -8 -103 -5 0 -14 1 -20 2 -5
0 -21 18 -34 39 -13 21 -25 40 -28 42 -22 18 -41 66 -36 90 7 34 55 138 67
145 5 3 9 12 9 18 0 13 34 61 75 106 78 84 242 101 413 44z"/>
<path d="M1223 414 c-29 -24 -83 -57 -179 -110 -114 -63 -113 -73 16 -138 132
-66 199 -87 372 -115 105 -16 314 -16 395 1 31 7 68 12 81 12 29 0 166 34 204
50 15 7 44 18 64 26 77 28 152 71 152 85 0 9 -20 29 -50 50 -57 41 -72 54
-109 100 -40 49 -46 49 -164 -9 -241 -117 -407 -124 -573 -24 -24 14 -48 26
-53 26 -5 0 -13 5 -19 12 -36 44 -105 61 -137 34z m96 -29 c217 -148 435 -174
623 -74 8 5 37 19 66 33 29 13 62 30 75 37 32 18 56 8 89 -37 16 -22 40 -46
53 -52 98 -51 89 -84 -33 -124 -11 -4 -40 -15 -64 -24 -323 -126 -787 -108
-1065 42 -79 43 -88 61 -41 81 16 8 37 18 46 23 24 15 132 85 164 107 35 24
33 25 87 -12z"/>
</g>
<g transform="translate(0.000000,414.000000) scale(0.125000,-0.125000)"
fill="#9aa6bc" stroke="none">
<path d="M1771 3257 c-67 -49 -150 -163 -167 -231 -3 -12 -10 -27 -15 -34 -40
-48 -58 -350 -26 -436 76 -204 191 -338 283 -330 40 3 38 -24 38 537 0 478 0
478 -22 498 -30 25 -53 24 -91 -4z m86 -4 c31 -23 26 -1021 -5 -1021 -95 0
-222 151 -277 328 -36 114 -21 336 29 444 6 13 17 38 24 56 55 128 179 232
229 193z"/>
<path d="M1482 3228 c-23 -15 -45 -28 -50 -28 -4 0 -21 -12 -38 -26 -16 -15
-57 -47 -90 -72 -184 -141 -280 -277 -337 -479 -105 -377 -87 -489 109 -672
151 -140 223 -138 472 18 18 11 52 29 76 41 24 12 49 25 56 29 7 4 44 23 84
43 101 50 101 51 -32 139 -120 79 -206 172 -234 251 -9 24 -24 64 -34 88 -28
67 -32 253 -9 337 9 33 17 66 17 74 0 8 5 26 11 40 7 14 16 38 20 53 4 15 19
58 32 94 37 101 22 120 -53 70z m57 5 c3 -4 -4 -33 -15 -66 -51 -149 -59 -175
-76 -243 -29 -113 -27 -282 3 -364 13 -33 28 -76 35 -96 28 -81 149 -202 289
-289 69 -43 71 -41 -171 -163 -31 -15 -69 -35 -84 -43 -188 -105 -234 -124
-271 -113 -113 32 -266 183 -316 311 -24 62 -25 145 -2 254 75 359 152 491
397 683 42 33 77 63 79 66 1 4 25 17 53 29 27 13 52 27 55 32 7 11 18 12 24 2z"/>
<path d="M1956 3230 c-2 -5 -6 -138 -8 -294 -2 -156 -5 -295 -6 -308 -8 -128
4 -1483 13 -1496 14 -19 66 2 77 32 11 29 19 2013 8 2038 -14 30 -76 51 -84
28z m64 -19 c25 -25 14 -2040 -12 -2059 -25 -20 -46 -20 -51 -2 -6 22 0 2055
6 2065 9 13 42 11 57 -4z"/>
<path d="M2124 3175 c-7 -21 -8 -206 -1 -228 5 -16 10 -17 127 -17 92 1 114 2
90 8 -18 4 -69 5 -114 3 -101 -5 -98 -8 -98 119 0 88 7 124 24 124 22 0 260
-127 320 -170 92 -67 150 -136 102 -123 -10 3 -29 8 -42 10 -13 3 -39 10 -58
16 -19 6 -50 11 -68 10 -34 -1 -34 -1 2 -7 20 -4 46 -10 59 -15 12 -5 32 -9
45 -9 13 0 36 -6 51 -13 29 -14 53 -11 53 7 0 21 -142 144 -192 168 -7 4 -32
17 -56 31 -183 102 -234 120 -244 86z"/>
<path d="M1059 3133 c-40 -14 -81 -29 -92 -34 -10 -5 -37 -17 -59 -27 -71 -30
-156 -74 -182 -93 -228 -168 -343 -286 -418 -426 -10 -18 -22 -37 -26 -43 -66
-82 -149 -308 -190 -514 -6 -31 -15 -73 -19 -93 -22 -98 -18 -467 7 -539 4
-13 15 -54 24 -91 26 -104 86 -209 120 -209 22 0 23 40 24 615 0 292 2 534 4
537 22 36 286 51 363 21 19 -7 43 -13 52 -12 10 0 -2 7 -27 17 -103 38 -370
25 -397 -20 -3 -5 -7 -263 -9 -573 -3 -612 -1 -577 -29 -558 -93 61 -172 554
-125 781 4 20 11 62 16 95 4 32 13 75 19 96 7 20 24 78 38 129 38 137 138 336
224 446 22 27 39 52 39 55 0 13 131 136 200 189 42 31 89 66 104 78 27 21 137
80 188 100 24 10 70 29 144 59 59 23 100 30 100 15 0 -12 -50 -82 -62 -87 -27
-12 -183 -242 -214 -315 -34 -82 -82 -249 -73 -257 5 -6 29 74 29 96 0 21 39
125 70 185 46 90 57 111 64 115 4 3 17 21 28 41 20 33 42 61 100 124 114 123
106 145 -35 97z"/>
<path d="M2141 2843 c-12 -13 -2 -35 44 -91 45 -55 71 -91 171 -230 20 -28 36
-55 36 -61 0 -5 6 -18 14 -29 21 -30 25 -198 6 -275 -20 -82 -61 -184 -129
-319 -32 -65 -59 -122 -59 -127 0 -5 -8 -19 -17 -32 -21 -30 -30 -87 -14 -87
10 0 132 59 246 119 16 9 34 18 41 20 7 3 26 14 44 24 18 11 66 37 108 59 42
22 105 55 140 74 35 19 75 40 88 46 13 7 35 20 48 30 13 9 40 25 60 35 64 32
81 83 56 170 -4 15 -8 38 -8 53 0 193 -227 461 -471 554 -126 48 -380 90 -404
67z m163 -22 c415 -61 683 -317 709 -679 6 -94 2 -104 -71 -144 -250 -140
-284 -158 -344 -188 -29 -14 -55 -30 -58 -34 -2 -4 -18 -11 -34 -17 -17 -5
-44 -19 -62 -30 -18 -11 -77 -41 -132 -67 -127 -58 -127 -57 -41 117 148 300
174 384 168 543 -5 112 -107 291 -272 475 -35 38 -2 44 137 24z"/>
<path d="M2133 2547 c-7 -16 -6 -640 0 -656 6 -15 30 -14 44 3 16 19 79 143
79 156 0 5 5 20 12 33 24 47 39 170 28 232 -23 125 -140 291 -163 232z m60
-39 c124 -143 126 -334 6 -556 -50 -92 -51 -90 -53 260 -3 371 -5 356 47 296z"/>
<path d="M788 2395 c-15 -201 -12 -195 -84 -175 -20 5 -20 5 0 -6 74 -42 84
-29 91 122 6 133 2 172 -7 59z"/>
<path d="M428 2161 c-73 -18 -69 11 -66 -433 2 -372 2 -372 25 -375 12 -1 28
3 36 9 13 12 120 49 166 58 27 5 188 -16 210 -27 7 -4 29 -10 49 -12 20 -3 49
-11 64 -16 15 -6 50 -17 76 -25 26 -8 96 -34 155 -58 143 -56 245 -55 357 4
52 27 52 27 52 258 1 254 5 245 -106 207 -133 -46 -344 -19 -398 51 -134 174
-329 313 -480 342 -20 4 -49 11 -64 16 -31 9 -41 9 -76 1z m104 -22 c166 -27
350 -153 510 -349 46 -56 95 -72 222 -73 97 -1 203 13 213 28 10 17 57 7 62
-13 18 -70 4 -394 -18 -414 -76 -69 -235 -81 -365 -27 -89 37 -253 93 -296
102 -18 3 -80 16 -138 28 -118 24 -141 21 -281 -34 -73 -30 -69 -55 -66 363 2
404 -1 384 54 394 31 6 39 6 103 -5z"/>
<path d="M3114 1933 c-37 -20 -82 -45 -102 -56 -19 -12 -41 -21 -48 -21 -7 0
-15 -5 -17 -12 -3 -7 -9 -12 -14 -12 -5 0 -42 -17 -83 -38 -40 -21 -139 -72
-220 -112 -379 -194 -361 -173 -278 -332 9 -16 16 -34 16 -40 0 -33 154 -252
208 -295 19 -15 53 -44 75 -64 45 -40 109 -80 194 -119 84 -39 89 -41 111 -31
19 9 25 17 94 123 42 65 105 202 113 248 4 17 11 41 16 52 6 11 16 49 23 84 8
35 20 91 27 124 16 74 25 364 13 417 -33 136 -31 135 -128 84z m97 5 c76 -270
-24 -825 -187 -1032 -9 -11 -16 -24 -16 -29 0 -18 -55 -69 -74 -69 -45 0 -218
100 -306 177 -125 110 -186 195 -269 378 -54 118 -56 132 -25 150 43 25 145
78 318 167 97 50 182 95 189 101 7 6 16 11 20 11 4 0 27 11 51 24 24 13 53 27
64 32 11 4 31 14 44 22 135 77 183 94 191 68z"/>
<path d="M1862 1951 c-8 -4 -24 -17 -36 -28 -12 -12 -35 -29 -50 -39 -59 -38
-104 -90 -104 -122 -2 -539 -1 -529 -65 -546 -16 -5 -40 -14 -52 -20 -13 -7
-27 -12 -33 -12 -5 0 -21 -5 -36 -11 -14 -7 -38 -16 -52 -21 -71 -27 -30 -112
86 -181 97 -57 274 -39 352 36 38 37 40 61 40 563 0 400 -1 410 -50 381z m31
-17 c9 -14 4 -866 -5 -889 -10 -28 -52 -57 -112 -78 -121 -43 -251 -12 -334
79 -60 66 -40 92 106 138 143 44 132 17 132 326 0 307 -6 281 88 354 20 15 50
40 66 54 32 28 49 32 59 16z"/>
<path d="M2188 1222 c-44 -73 -173 -209 -220 -233 -15 -7 -39 -21 -52 -29 -73
-47 -184 -84 -278 -93 -118 -11 -302 86 -350 184 -42 89 -62 93 -153 32 -69
-47 -116 -76 -151 -91 -11 -5 -31 -15 -44 -21 -32 -14 -136 -50 -176 -60 -18
-5 -70 -11 -116 -14 -98 -6 -104 -18 -72 -161 59 -269 77 -309 140 -326 141
-38 312 18 446 147 51 49 93 75 120 75 4 0 39 -30 77 -66 206 -198 572 -180
776 37 33 35 56 19 134 -93 99 -144 152 -128 355 106 24 28 56 64 70 79 54 59
50 66 -102 189 -154 125 -282 268 -340 379 -17 34 -19 33 -64 -41z m63 12 c44
-84 243 -298 353 -377 65 -47 108 -89 108 -106 0 -35 -230 -275 -299 -311 -43
-23 -58 -16 -109 50 -125 159 -134 167 -168 130 -10 -10 -33 -29 -51 -42 -18
-12 -38 -27 -44 -32 -6 -6 -40 -24 -76 -42 -224 -108 -440 -82 -600 73 -90 87
-110 87 -201 0 -146 -139 -315 -195 -457 -152 -32 10 -43 28 -66 107 -10 35
-22 75 -26 90 -4 14 -11 44 -15 68 -4 23 -13 68 -20 101 -19 88 -11 97 86 97
67 0 140 16 221 50 42 17 84 33 93 36 9 2 21 9 28 14 7 5 28 18 48 28 20 10
61 36 91 57 67 49 81 49 113 -5 173 -285 539 -280 828 11 46 47 96 106 110
131 30 52 37 55 53 24z"/>
<path d="M589 1248 c-90 -24 -177 -98 -205 -173 -5 -11 -17 -32 -28 -47 -64
-83 -73 -188 -20 -236 2 -2 16 -22 31 -44 72 -108 97 -92 97 63 0 141 -7 133
120 133 65 0 114 4 139 12 22 7 54 12 71 12 17 0 41 5 53 11 12 7 36 14 53 17
18 3 37 11 44 16 7 6 25 16 40 22 40 17 98 72 95 90 -3 16 -5 18 -90 56 -102
47 -142 60 -201 68 -109 16 -142 16 -199 0z m178 -8 c57 -8 166 -42 225 -72
15 -8 38 -18 50 -23 42 -17 17 -60 -58 -97 -20 -10 -41 -22 -47 -27 -6 -5 -30
-13 -52 -18 -23 -5 -55 -13 -73 -18 -76 -19 -150 -27 -242 -29 -124 -1 -117 7
-118 -135 0 -149 -13 -158 -84 -60 -84 115 -81 145 44 343 74 117 181 158 355
136z"/>
<path d="M1223 414 c-29 -24 -83 -57 -179 -110 -114 -63 -113 -73 16 -138 132
-66 199 -87 372 -115 105 -16 314 -16 395 1 31 7 68 12 81 12 29 0 166 34 204
50 15 7 44 18 64 26 77 28 152 71 152 85 0 9 -20 29 -50 50 -57 41 -72 54
-109 100 -40 49 -46 49 -164 -9 -241 -117 -407 -124 -573 -24 -24 14 -48 26
-53 26 -5 0 -13 5 -19 12 -36 44 -105 61 -137 34z m67 1 c9 -5 24 -15 32 -23
8 -7 42 -29 76 -47 208 -114 359 -112 607 8 121 59 134 57 188 -22 6 -10 35
-33 63 -52 29 -19 53 -41 54 -49 3 -15 -65 -58 -106 -67 -13 -3 -28 -8 -32
-11 -4 -4 -30 -14 -56 -23 -312 -108 -717 -103 -980 13 -170 74 -191 99 -118
133 23 11 88 49 142 85 109 69 106 68 130 55z"/>
</g>
</svg>
