<svg xmlns="http://www.w3.org/2000/svg" viewBox="0 0 1792 410" role="img" aria-label="Clube Náutico da Praia de Mira">
<g transform="translate(0.000000,410.000000) scale(0.125000,-0.125000)"
fill="#eef4f8" stroke="none">
<path d="M9331 3263 c-36 -22 -36 -23 -42 -644 -6 -601 -8 -630 -51 -507 -7
20 -25 70 -41 112 -15 42 -32 89 -37 104 -6 15 -17 46 -25 68 -8 22 -15 46
-15 52 0 7 -5 21 -11 33 -6 11 -13 31 -16 44 -3 12 -12 41 -21 63 -8 22 -20
60 -27 84 -24 87 -71 237 -86 275 -8 22 -15 44 -15 49 0 5 -7 19 -16 30 -9 11
-16 25 -16 31 -1 14 -54 55 -72 55 -7 0 -16 3 -20 7 -5 4 -36 15 -71 25 -80
22 -101 12 -111 -53 -17 -120 -31 -1621 -17 -1815 7 -96 7 -96 97 -141 121
-61 158 -53 177 38 11 54 13 668 2 779 -23 229 -1 290 47 135 14 -44 37 -106
52 -138 16 -32 28 -62 28 -66 0 -5 11 -31 25 -59 13 -28 32 -72 43 -99 10 -27
31 -77 47 -112 16 -35 29 -67 29 -71 0 -5 11 -32 25 -61 14 -29 34 -73 45 -97
74 -166 82 -175 166 -190 139 -25 138 -25 166 38 18 40 23 1886 5 1953 -20 76
-170 124 -244 78z"/>
<path d="M1723 3225 c-67 -49 -150 -163 -167 -231 -3 -12 -10 -27 -15 -34 -40
-48 -58 -350 -26 -436 76 -204 191 -338 283 -330 40 3 38 -24 38 537 0 478 0
478 -22 498 -30 25 -53 24 -91 -4z"/>
<path d="M4010 3229 c-65 -22 -122 -75 -184 -177 -10 -17 -52 -103 -69 -144
-22 -51 -61 -180 -81 -268 -11 -51 -26 -115 -32 -144 -7 -29 -12 -66 -12 -84
0 -18 -6 -55 -12 -84 -30 -133 -33 -633 -5 -736 5 -15 10 -41 12 -57 37 -249
222 -419 457 -419 158 0 241 60 351 253 107 186 121 517 26 595 -94 77 -221
-33 -221 -190 0 -23 -8 -66 -17 -97 -90 -302 -238 -395 -264 -168 -3 32 -11
74 -16 92 -28 93 -10 587 29 803 6 35 14 84 17 108 2 24 10 59 16 78 6 19 11
51 11 71 0 20 5 46 12 59 6 12 14 38 17 57 23 153 88 109 107 -72 5 -42 14
-94 20 -116 7 -22 12 -48 12 -57 0 -169 264 -193 301 -28 55 249 -1 485 -143
598 -32 25 -62 50 -66 55 -45 53 -197 94 -266 72z"/>
<path d="M4817 3226 c-32 -26 -40 -123 -49 -552 -4 -214 -12 -530 -16 -702
-14 -483 -2 -738 34 -780 10 -11 19 -21 19 -23 13 -27 147 -54 179 -36 45 27
43 -2 49 795 5 578 9 765 19 856 37 346 13 424 -136 444 -22 3 -49 7 -61 9
-13 2 -27 -2 -38 -11z"/>
<path d="M6243 3223 c-16 -8 -17 -16 -22 -182 -2 -95 -9 -214 -15 -265 -14
-136 -14 -1460 1 -1517 17 -68 43 -86 111 -79 48 5 63 3 107 -14 141 -53 166
-56 233 -26 119 52 217 239 246 470 5 36 12 86 16 110 9 58 9 321 0 372 -5 22
-12 65 -17 96 -35 218 -307 360 -386 201 -27 -55 -59 -84 -65 -59 -3 12 -3 25
0 31 20 31 45 739 28 793 -18 60 -170 104 -237 69z m409 -1195 c0 -425 -97
-765 -184 -642 -20 29 -8 342 17 442 29 115 56 196 88 265 10 23 19 44 19 47
0 15 35 53 47 50 12 -2 13 -20 13 -162z"/>
<path d="M1434 3196 c-23 -15 -45 -28 -50 -28 -4 0 -21 -12 -38 -26 -16 -15
-57 -47 -90 -72 -184 -141 -280 -277 -337 -479 -105 -377 -87 -489 109 -672
151 -140 223 -138 472 18 18 11 52 29 76 41 24 12 49 25 56 29 7 4 44 23 84
43 101 50 101 51 -32 139 -120 79 -206 172 -234 251 -9 24 -24 64 -34 88 -28
67 -32 253 -9 337 9 33 17 66 17 74 0 8 5 26 11 40 7 14 16 38 20 53 4 15 19
58 32 94 37 101 22 120 -53 70z"/>
<path d="M1908 3198 c-2 -5 -6 -138 -8 -294 -2 -156 -5 -295 -6 -308 -8 -128
4 -1483 13 -1496 14 -19 66 2 77 32 11 29 19 2013 8 2038 -14 30 -76 51 -84
28z"/>
<path d="M2076 3143 c-8 -23 -8 -207 0 -230 6 -19 8 -19 67 -15 74 6 221 -7
266 -22 18 -7 43 -12 56 -12 12 0 35 -6 50 -13 29 -14 53 -11 53 7 0 21 -142
144 -192 168 -7 4 -32 17 -56 31 -183 102 -234 120 -244 86z"/>
<path d="M1011 3101 c-40 -14 -81 -29 -92 -34 -10 -5 -37 -17 -59 -27 -71 -30
-156 -74 -182 -93 -228 -168 -343 -286 -418 -426 -10 -18 -22 -37 -26 -43 -66
-82 -149 -308 -190 -514 -6 -31 -15 -73 -19 -93 -22 -98 -18 -467 7 -539 4
-13 15 -54 24 -91 26 -104 86 -209 120 -209 22 0 23 40 24 615 0 292 2 534 4
537 18 29 218 51 304 34 59 -12 116 -27 148 -39 83 -31 84 -29 91 126 4 88 10
135 21 168 9 26 16 55 16 65 0 22 38 123 70 186 46 90 57 111 64 115 4 3 17
21 28 41 20 33 42 61 100 124 114 123 106 145 -35 97z"/>
<path d="M12403 3074 c-94 -18 -146 -195 -97 -330 24 -67 87 -112 155 -112
157 0 177 338 24 427 -35 20 -46 23 -82 15z"/>
<path d="M10368 3001 c-20 -13 -44 -30 -53 -39 -25 -25 -155 -110 -187 -122
-102 -41 -112 -113 -26 -193 40 -37 79 -40 121 -9 12 9 30 19 41 22 10 3 24
11 30 17 6 6 17 11 23 11 7 0 22 7 33 16 11 9 26 16 33 16 8 0 18 4 23 9 5 5
38 19 73 31 111 36 131 109 53 188 -82 82 -107 90 -164 53z"/>
<path d="M11708 2935 c-36 -20 -36 -21 -36 -296 0 -301 7 -277 -79 -284 -74
-6 -80 -9 -93 -41 -34 -80 28 -218 96 -218 69 0 67 7 64 -328 -4 -477 5 -562
65 -591 13 -7 29 -15 37 -18 14 -7 65 -21 102 -28 57 -11 80 94 67 301 -2 45
-2 216 1 378 7 342 1 321 97 320 80 0 89 16 86 139 -3 120 -11 131 -90 131
-90 0 -90 2 -60 373 10 115 -154 218 -257 162z"/>
<path d="M2093 2811 c-12 -13 -2 -35 44 -91 45 -55 71 -91 171 -230 20 -28 36
-55 36 -61 0 -5 6 -18 14 -29 21 -30 25 -198 6 -275 -20 -82 -61 -184 -129
-319 -32 -65 -59 -122 -59 -127 0 -5 -8 -19 -17 -32 -21 -30 -30 -87 -14 -87
10 0 132 59 246 119 16 9 34 18 41 20 7 3 26 14 44 24 18 11 66 37 108 59 42
22 105 55 140 74 35 19 75 40 88 46 13 7 35 20 48 30 13 9 40 25 60 35 64 32
81 83 56 170 -4 15 -8 38 -8 53 0 193 -227 461 -471 554 -126 48 -380 90 -404
67z"/>
<path d="M2085 2515 c-7 -16 -6 -640 0 -656 6 -15 30 -14 44 3 16 19 79 143
79 156 0 5 5 20 12 33 24 47 39 170 28 232 -23 125 -140 291 -163 232z"/>
<path d="M13832 2522 c-48 -17 -96 -78 -124 -155 -90 -253 -111 -371 -111
-643 -1 -322 29 -402 184 -484 26 -14 58 -32 71 -40 170 -111 276 -66 387 164
135 279 129 749 -13 980 -28 45 -126 120 -159 120 -8 0 -29 7 -47 16 -18 9
-40 16 -49 16 -9 0 -29 5 -44 11 -34 14 -79 21 -95 15z m183 -321 c10 -13 17
-33 17 -44 0 -12 6 -56 14 -99 16 -92 18 -222 3 -306 -6 -33 -13 -78 -17 -100
-25 -144 -84 -262 -120 -240 -48 30 -64 380 -25 540 61 250 89 305 128 249z"/>
<path d="M11112 2505 c-22 -18 -23 -36 -24 -369 0 -77 -5 -194 -12 -260 -6
-66 -13 -148 -16 -183 -9 -116 -105 -290 -127 -232 -8 20 -5 508 3 543 40 173
22 376 -36 411 -113 69 -212 37 -212 -69 0 -25 -7 -107 -16 -182 -18 -155 -23
-605 -7 -664 5 -18 12 -50 17 -72 20 -101 89 -207 145 -225 9 -3 26 -12 37
-20 63 -46 128 -36 193 30 42 42 50 43 68 7 49 -104 185 -145 212 -63 22 65
24 1238 3 1270 -43 66 -183 113 -228 78z"/>
<path d="M13012 2499 c-18 -19 -84 -125 -84 -134 0 -2 -12 -31 -27 -63 -46
-100 -66 -161 -85 -262 -5 -24 -15 -71 -22 -104 -21 -91 -20 -432 1 -500 25
-81 63 -129 157 -199 193 -142 296 -128 421 56 19 28 59 108 59 119 0 3 5 17
11 31 60 137 55 187 -28 267 -48 48 -71 57 -101 41 -20 -11 -66 -98 -66 -126
0 -26 -72 -152 -106 -187 -8 -8 -14 -17 -14 -20 0 -18 -49 -36 -63 -23 -15 16
-16 370 0 411 4 12 13 59 19 106 6 46 15 98 19 116 5 18 14 59 22 92 27 124
64 124 54 -1 -11 -127 24 -200 105 -223 104 -29 148 31 150 203 3 257 -3 275
-98 327 -24 13 -48 27 -52 30 -5 4 -23 11 -40 15 -68 17 -115 32 -131 40 -30
17 -80 11 -101 -12z"/>
<path d="M5720 2491 c-14 -19 -16 -31 -15 -94 3 -139 -10 -641 -17 -661 -4
-11 -11 -45 -16 -76 -16 -101 -67 -204 -100 -204 -31 0 -41 193 -22 396 14
151 28 464 22 492 -19 87 -202 137 -247 68 -36 -55 -70 -732 -45 -888 24 -149
57 -235 106 -281 36 -33 95 -75 107 -75 5 0 19 -5 32 -12 47 -24 78 -14 147
47 60 54 61 54 72 13 26 -95 174 -146 212 -73 26 51 18 1270 -9 1299 -61 64
-192 92 -227 49z"/>
<path d="M7281 2459 c-34 -38 -80 -120 -101 -180 -36 -101 -51 -154 -67 -227
-10 -44 -23 -106 -30 -137 -20 -88 -20 -376 0 -435 42 -125 73 -179 136 -243
93 -95 230 -142 303 -104 31 16 110 77 110 84 0 3 14 23 31 45 115 146 155
270 117 363 -9 24 -64 55 -96 57 -34 1 -53 -16 -105 -97 -15 -23 -32 -48 -37
-54 -143 -172 -222 -166 -222 17 0 96 45 148 127 148 17 0 48 5 70 12 21 7 64
14 95 17 31 2 63 9 72 14 9 6 26 13 38 16 36 9 41 30 42 165 0 119 -15 291
-28 308 -3 4 -9 20 -12 35 -30 140 -167 233 -344 233 -67 0 -67 0 -99 -37z
m209 -240 c12 -21 15 -45 16 -132 2 -107 2 -107 -36 -125 -85 -41 -114 -26
-91 48 6 19 15 54 20 78 6 24 13 53 17 64 3 11 11 37 16 58 12 46 34 50 58 9z"/>
<path d="M10054 2441 c-63 -67 -108 -132 -136 -197 -86 -197 -100 -273 -56
-313 83 -78 144 -65 197 42 13 26 30 54 38 63 7 9 30 47 50 84 61 116 73 105
75 -78 2 -162 0 -170 -50 -170 -37 0 -144 -44 -163 -67 -6 -7 -16 -13 -22 -13
-15 0 -106 -86 -126 -120 -48 -77 -68 -224 -39 -276 5 -9 16 -32 24 -52 59
-141 195 -207 320 -155 50 21 84 18 115 -12 52 -49 143 -59 176 -19 21 24 28
960 9 1058 -18 88 -44 131 -105 168 -227 140 -228 140 -307 57z m165 -846 c8
-20 6 -87 -4 -114 -21 -60 -199 -68 -199 -10 0 72 181 183 203 124z"/>
<path d="M12329 2473 c-36 -38 -37 -63 -37 -637 0 -610 1 -622 74 -672 37 -25
140 -29 174 -7 28 18 28 15 32 519 3 251 7 496 10 544 10 148 6 182 -27 215
-61 63 -184 83 -226 38z"/>
<path d="M380 2129 c-73 -18 -69 11 -66 -433 2 -372 2 -372 25 -375 12 -1 28
3 36 9 13 12 120 49 166 58 27 5 188 -16 210 -27 7 -4 29 -10 49 -12 20 -3 49
-11 64 -16 15 -6 50 -17 76 -25 26 -8 96 -34 155 -58 143 -56 245 -55 357 4
52 27 52 27 52 258 1 254 5 245 -106 207 -133 -46 -344 -19 -398 51 -134 174
-329 313 -480 342 -20 4 -49 11 -64 16 -31 9 -41 9 -76 1z"/>
<path d="M3066 1901 c-37 -20 -82 -45 -102 -56 -19 -12 -41 -21 -48 -21 -7 0
-15 -5 -17 -12 -3 -7 -9 -12 -14 -12 -5 0 -42 -17 -83 -38 -40 -21 -139 -72
-220 -112 -379 -194 -361 -173 -278 -332 9 -16 16 -34 16 -40 0 -33 154 -252
208 -295 19 -15 53 -44 75 -64 45 -40 109 -80 194 -119 84 -39 89 -41 111 -31
19 9 25 17 94 123 42 65 105 202 113 248 4 17 11 41 16 52 6 11 16 49 23 84 8
35 20 91 27 124 16 74 25 364 13 417 -33 136 -31 135 -128 84z"/>
<path d="M1814 1919 c-8 -4 -24 -17 -36 -28 -12 -12 -35 -29 -50 -39 -59 -38
-104 -90 -104 -122 -2 -539 -1 -529 -65 -546 -16 -5 -40 -14 -52 -20 -13 -7
-27 -12 -33 -12 -5 0 -21 -5 -36 -11 -14 -7 -38 -16 -52 -21 -71 -27 -30 -112
86 -181 97 -57 274 -39 352 36 38 37 40 61 40 563 0 400 -1 410 -50 381z"/>
<path d="M2140 1190 c-44 -73 -173 -209 -220 -233 -15 -7 -39 -21 -52 -29 -73
-47 -184 -84 -278 -93 -118 -11 -302 86 -350 184 -42 89 -62 93 -153 32 -69
-47 -116 -76 -151 -91 -11 -5 -31 -15 -44 -21 -32 -14 -136 -50 -176 -60 -18
-5 -70 -11 -116 -14 -98 -6 -104 -18 -72 -161 59 -269 77 -309 140 -326 141
-38 312 18 446 147 51 49 93 75 120 75 4 0 39 -30 77 -66 206 -198 572 -180
776 37 33 35 56 19 134 -93 99 -144 152 -128 355 106 24 28 56 64 70 79 54 59
50 66 -102 189 -154 125 -282 268 -340 379 -17 34 -19 33 -64 -41z"/>
<path d="M541 1216 c-90 -24 -177 -98 -205 -173 -5 -11 -17 -32 -28 -47 -64
-83 -73 -188 -20 -236 2 -2 16 -22 31 -44 72 -108 97 -92 97 63 0 141 -7 133
120 133 65 0 114 4 139 12 22 7 54 12 71 12 17 0 41 5 53 11 12 7 36 14 53 17
18 3 37 11 44 16 7 6 25 16 40 22 40 17 98 72 95 90 -3 16 -5 18 -90 56 -102
47 -142 60 -201 68 -109 16 -142 16 -199 0z"/>
<path d="M12021 796 c-39 -20 -72 -78 -131 -225 -44 -112 -66 -118 -91 -26
-15 56 -30 98 -45 124 -6 10 -10 23 -10 29 0 57 -246 90 -279 37 -25 -40 -33
-568 -9 -605 19 -29 122 -50 165 -33 21 7 21 7 18 185 -3 163 -2 178 11 180 9
2 15 -4 18 -19 3 -13 12 -39 20 -59 8 -20 23 -58 33 -84 49 -130 166 -137 214
-12 14 36 29 71 33 79 4 7 14 33 23 57 39 109 35 102 56 89 9 -6 10 -25 6 -96
-3 -49 -7 -128 -10 -176 -6 -99 0 -116 41 -134 39 -16 145 -15 151 2 10 26 6
641 -5 649 -41 34 -171 58 -209 38z"/>
<path d="M13883 800 c-20 -8 -35 -30 -63 -96 -12 -29 -24 -58 -28 -65 -3 -6
-16 -37 -28 -68 -11 -30 -27 -69 -36 -87 -24 -52 -56 -129 -71 -174 -30 -84
-35 -98 -45 -122 -35 -81 -20 -121 48 -132 82 -13 114 17 155 149 15 49 31 56
140 62 113 6 129 2 137 -35 13 -60 68 -132 104 -136 139 -15 142 -7 72 228
-15 53 -32 110 -36 128 -5 18 -14 48 -21 68 -7 20 -15 52 -19 72 -4 20 -18 66
-31 104 -14 37 -25 68 -25 69 0 21 -214 51 -253 35z m118 -266 c5 -19 14 -47
21 -63 23 -57 15 -67 -56 -69 -71 -3 -76 3 -46 60 8 16 22 47 31 68 21 48 37
49 50 4z"/>
<path d="M4707 792 c-21 -8 -49 -46 -74 -100 -10 -22 -24 -50 -30 -63 -6 -12
-11 -29 -11 -37 0 -8 -5 -18 -11 -24 -7 -5 -14 -19 -17 -32 -3 -13 -23 -63
-44 -112 -22 -48 -43 -100 -47 -114 -4 -14 -17 -51 -29 -82 -54 -143 -47 -181
32 -192 43 -7 89 10 97 34 3 8 17 40 32 72 15 32 27 63 27 69 0 22 27 32 102
39 147 14 139 16 161 -30 11 -22 25 -49 31 -60 6 -11 13 -26 15 -33 11 -32 68
-56 123 -51 83 9 84 13 39 152 -13 40 -29 94 -36 120 -87 340 -117 416 -166
423 -41 6 -144 22 -161 25 -9 2 -24 0 -33 -4z m116 -304 c37 -102 34 -108 -55
-102 -57 3 -59 15 -20 98 36 76 49 77 75 4z"/>
<path d="M7400 782 c-27 -19 -71 -87 -71 -113 -1 -8 -6 -24 -12 -36 -6 -11
-26 -57 -45 -101 -18 -44 -38 -91 -43 -104 -6 -13 -18 -41 -28 -62 -9 -21 -17
-42 -17 -47 0 -5 -5 -20 -12 -34 -37 -82 -64 -181 -57 -210 14 -52 173 -46
173 8 0 9 31 79 58 133 13 25 61 39 158 45 87 6 90 3 117 -71 33 -96 90 -123
201 -97 25 6 13 94 -23 175 -4 9 -12 37 -18 62 -7 25 -15 50 -18 55 -3 5 -10
33 -15 62 -11 57 -55 204 -74 249 -28 65 -30 68 -58 73 -184 36 -182 36 -216
13z m118 -244 c57 -152 58 -149 -43 -159 -71 -6 -75 -1 -44 62 14 27 25 53 25
58 0 43 49 74 62 39z"/>
<path d="M8034 790 c-44 -11 -54 -97 -53 -448 1 -229 5 -246 58 -246 12 0 31
-5 44 -12 37 -19 74 -16 91 9 15 24 23 616 9 657 -6 16 -26 25 -99 42 -13 3
-36 2 -50 -2z"/>
<path d="M8607 794 c-21 -9 -79 -102 -79 -126 0 -7 -7 -26 -16 -42 -8 -17 -25
-55 -37 -85 -11 -31 -24 -62 -27 -68 -14 -27 -58 -135 -68 -165 -6 -18 -22
-62 -35 -100 -43 -116 -31 -158 44 -166 51 -6 85 13 103 57 7 18 20 46 29 63
8 16 15 34 15 40 0 58 218 91 262 41 10 -12 18 -26 18 -32 0 -15 40 -89 56
-103 17 -16 96 -25 140 -16 34 6 36 50 3 123 -8 19 -15 40 -15 47 0 7 -11 47
-24 90 -13 43 -28 94 -32 113 -4 19 -13 53 -20 75 -7 22 -18 60 -25 84 -32
110 -48 140 -76 145 -134 28 -194 34 -216 25z m121 -286 c7 -26 17 -58 22 -70
18 -42 -8 -58 -86 -53 -44 4 -50 22 -25 72 10 17 17 35 17 40 0 5 8 21 17 36
24 40 40 33 55 -25z"/>
<path d="M9628 795 c-53 -11 -52 1 -52 -339 -1 -369 -9 -342 96 -360 20 -4 51
-11 69 -17 70 -21 257 64 351 159 131 132 147 314 37 421 -99 97 -354 166
-501 136z m292 -173 c27 -20 39 -46 60 -125 18 -65 -125 -280 -181 -272 -20 3
-29 309 -12 394 8 40 83 41 133 3z"/>
<path d="M12490 792 c-34 -14 -40 -47 -45 -252 -11 -414 -6 -433 109 -452 100
-17 94 -40 94 342 0 179 -3 330 -6 336 -17 26 -112 42 -152 26z"/>
<path d="M3747 781 c-19 -5 -37 -12 -40 -16 -10 -9 -11 -595 -2 -626 8 -27 27
-38 83 -47 17 -3 41 -10 53 -17 90 -46 335 76 430 214 97 141 72 331 -54 400
-16 8 -40 22 -53 30 -104 61 -310 92 -417 62z m294 -161 c105 -73 75 -266 -59
-372 -74 -59 -74 -60 -75 172 -1 123 1 205 6 215 13 23 84 15 128 -15z"/>
<path d="M13144 784 c-20 -4 -83 -7 -141 -7 -152 -1 -155 -10 -155 -383 0
-286 2 -291 111 -300 78 -7 89 8 89 119 0 104 14 128 54 93 78 -68 158 -129
215 -164 13 -8 34 -21 48 -30 56 -36 155 -15 155 33 0 17 3 14 -112 119 -108
99 -104 95 -104 108 0 12 37 44 52 44 5 0 25 11 43 24 18 13 35 24 37 24 11 0
78 62 93 85 75 121 -173 272 -385 235z m172 -132 c27 -26 25 -36 -9 -70 -25
-25 -101 -70 -119 -70 -4 0 -13 -6 -21 -13 -10 -9 -30 -13 -61 -14 -46 -1 -46
-1 -48 65 -3 83 1 90 63 107 82 22 171 20 195 -5z"/>
<path d="M5780 776 c-53 -3 -97 -6 -97 -7 -15 -13 -23 -612 -8 -653 10 -29 62
-52 120 -52 74 0 80 11 83 143 2 118 -8 102 84 125 275 68 376 287 178 390
-108 56 -165 65 -360 54z m222 -142 c58 -52 -37 -206 -110 -178 -26 10 -32
176 -6 192 19 11 98 2 116 -14z"/>
<path d="M10503 776 c-149 -6 -143 9 -146 -364 -2 -336 -12 -321 219 -318 230
3 288 15 288 59 0 66 -35 79 -191 74 -132 -5 -131 -5 -122 106 3 46 8 48 145
57 130 8 157 18 155 57 -3 58 -26 68 -169 73 -126 4 -126 4 -126 45 1 71 10
80 91 86 179 13 213 30 178 88 -29 46 -56 49 -322 37z"/>
<path d="M6423 767 c-48 -18 -51 -37 -51 -353 0 -335 -7 -310 95 -325 88 -13
91 -10 100 135 5 83 18 99 53 66 56 -51 254 -189 284 -197 11 -3 28 -10 38
-15 27 -13 88 17 95 47 6 23 -9 38 -165 178 -31 28 -55 55 -54 59 3 9 84 63
116 77 16 8 34 22 96 80 66 61 19 159 -108 222 -64 32 -198 42 -370 27 -24 -2
-58 -1 -76 2 -18 3 -42 2 -53 -3z m430 -131 c15 -20 15 -20 -15 -52 -39 -43
-143 -103 -179 -104 -9 0 -22 -5 -27 -12 -12 -15 -43 -16 -54 -2 -12 15 1 148
16 163 29 29 239 35 259 7z"/>
<path d="M1175 382 c-29 -24 -83 -57 -179 -110 -114 -63 -113 -73 16 -138 132
-66 199 -87 372 -115 105 -16 314 -16 395 1 31 7 68 12 81 12 29 0 166 34 204
50 15 7 44 18 64 26 77 28 152 71 152 85 0 9 -20 29 -50 50 -57 41 -72 54
-109 100 -40 49 -46 49 -164 -9 -241 -117 -407 -124 -573 -24 -24 14 -48 26
-53 26 -5 0 -13 5 -19 12 -36 44 -105 61 -137 34z"/>
</g>
<g transform="translate(0.000000,410.000000) scale(0.125000,-0.125000)"
fill="#6f9bbd" stroke="none">
<path d="M9331 3263 c-36 -22 -36 -23 -42 -644 -6 -601 -8 -630 -51 -507 -7
20 -25 70 -41 112 -15 42 -32 89 -37 104 -6 15 -17 46 -25 68 -8 22 -15 46
-15 52 0 7 -5 21 -11 33 -6 11 -13 31 -16 44 -3 12 -12 41 -21 63 -8 22 -20
60 -27 84 -24 87 -71 237 -86 275 -8 22 -15 44 -15 49 0 5 -7 19 -16 30 -9 11
-16 25 -16 31 -1 14 -54 55 -72 55 -7 0 -16 3 -20 7 -5 4 -36 15 -71 25 -80
22 -101 12 -111 -53 -17 -120 -31 -1621 -17 -1815 7 -96 7 -96 97 -141 121
-61 158 -53 177 38 11 54 13 668 2 779 -23 229 -1 290 47 135 14 -44 37 -106
52 -138 16 -32 28 -62 28 -66 0 -5 11 -31 25 -59 13 -28 32 -72 43 -99 10 -27
31 -77 47 -112 16 -35 29 -67 29 -71 0 -5 11 -32 25 -61 14 -29 34 -73 45 -97
74 -166 82 -175 166 -190 139 -25 138 -25 166 38 18 40 23 1886 5 1953 -20 76
-170 124 -244 78z m168 -21 c60 -17 56 25 63 -697 3 -355 7 -733 9 -841 3
-171 -2 -306 -15 -432 -4 -42 -27 -77 -49 -75 -120 11 -209 51 -211 95 0 8
-48 121 -84 200 -19 40 -57 130 -128 296 -55 128 -111 272 -131 337 -30 95
-60 130 -80 92 -9 -15 -5 -181 4 -195 7 -11 5 -836 -2 -858 -17 -56 -60 -57
-158 -6 -71 38 -71 38 -73 110 -2 40 -7 140 -11 222 -5 83 -7 248 -5 368 26
1427 14 1298 118 1264 28 -9 62 -19 76 -22 14 -3 26 -9 26 -13 0 -4 5 -7 11
-7 29 0 54 -52 114 -244 11 -35 27 -81 36 -101 8 -21 15 -44 15 -51 0 -7 29
-98 64 -202 82 -246 81 -244 88 -259 4 -7 18 -47 32 -88 70 -202 93 -200 95 8
3 342 18 1070 22 1084 8 27 100 35 174 15z"/>
<path d="M1723 3225 c-67 -49 -150 -163 -167 -231 -3 -12 -10 -27 -15 -34 -40
-48 -58 -350 -26 -436 76 -204 191 -338 283 -330 40 3 38 -24 38 537 0 478 0
478 -22 498 -30 25 -53 24 -91 -4z m95 -39 c2 -12 3 -225 1 -474 -2 -249 -3
-464 -3 -478 0 -32 -14 -34 -68 -7 -37 19 -116 88 -116 101 0 4 -5 12 -11 18
-106 106 -136 443 -56 627 84 195 233 320 253 213z"/>
<path d="M4010 3229 c-65 -22 -122 -75 -184 -177 -10 -17 -52 -103 -69 -144
-22 -51 -61 -180 -81 -268 -11 -51 -26 -115 -32 -144 -7 -29 -12 -66 -12 -84
0 -18 -6 -55 -12 -84 -30 -133 -33 -633 -5 -736 5 -15 10 -41 12 -57 37 -249
222 -419 457 -419 158 0 241 60 351 253 107 186 121 517 26 595 -94 77 -221
-33 -221 -190 0 -23 -8 -66 -17 -97 -90 -302 -238 -395 -264 -168 -3 32 -11
74 -16 92 -28 93 -10 587 29 803 6 35 14 84 17 108 2 24 10 59 16 78 6 19 11
51 11 71 0 20 5 46 12 59 6 12 14 38 17 57 23 153 88 109 107 -72 5 -42 14
-94 20 -116 7 -22 12 -48 12 -57 0 -169 264 -193 301 -28 55 249 -1 485 -143
598 -32 25 -62 50 -66 55 -45 53 -197 94 -266 72z m176 -45 c227 -117 290
-227 290 -508 0 -224 -17 -258 -132 -266 -92 -7 -134 49 -156 205 -37 254 -72
329 -126 267 -23 -27 -80 -271 -109 -470 -5 -31 -15 -99 -22 -152 -21 -138
-21 -626 -1 -692 7 -24 15 -66 17 -93 12 -131 138 -157 190 -40 4 9 17 33 29
53 45 73 84 189 94 280 18 162 107 251 184 183 55 -49 62 -73 58 -210 -5 -184
-35 -289 -122 -430 -90 -146 -250 -216 -390 -171 -280 90 -377 293 -376 784 0
217 34 543 66 639 5 13 12 47 16 74 22 136 121 379 191 470 90 116 179 139
299 77z"/>
<path d="M4817 3226 c-32 -26 -40 -123 -49 -552 -4 -214 -12 -530 -16 -702
-14 -483 -2 -738 34 -780 10 -11 19 -21 19 -23 13 -27 147 -54 179 -36 45 27
43 -2 49 795 5 578 9 765 19 856 37 346 13 424 -136 444 -22 3 -49 7 -61 9
-13 2 -27 -2 -38 -11z m158 -39 c81 -43 85 -87 48 -534 -4 -57 -11 -413 -14
-791 -6 -785 1 -725 -85 -715 -163 19 -170 73 -148 1045 16 716 29 996 46
1013 20 20 99 10 153 -18z"/>
<path d="M6243 3223 c-16 -8 -17 -16 -22 -182 -2 -95 -9 -214 -15 -265 -14
-136 -14 -1460 1 -1517 17 -68 43 -86 111 -79 48 5 63 3 107 -14 141 -53 166
-56 233 -26 119 52 217 239 246 470 5 36 12 86 16 110 9 58 9 321 0 372 -5 22
-12 65 -17 96 -35 218 -307 360 -386 201 -27 -55 -59 -84 -65 -59 -3 12 -3 25
0 31 20 31 45 739 28 793 -18 60 -170 104 -237 69z m171 -30 c19 -9 38 -25 43
-35 11 -21 5 -582 -7 -614 -16 -42 -20 -237 -6 -251 15 -15 44 -5 44 15 0 6 5
16 12 23 7 7 20 27 30 46 64 122 296 26 341 -141 48 -177 47 -533 -3 -720 -90
-339 -197 -422 -431 -336 -51 20 -86 28 -100 25 -69 -15 -69 -15 -85 3 -35 39
-38 75 -42 557 -3 426 1 635 22 1095 5 92 8 207 8 256 0 60 3 89 10 94 18 13
129 1 164 -17z"/>
<path d="M6594 2178 c-36 -56 -90 -201 -121 -326 -37 -147 -50 -436 -23 -478
47 -71 138 3 165 134 4 22 12 56 16 76 39 165 58 584 29 616 -22 25 -39 19
-66 -22z m58 -150 c0 -425 -97 -765 -184 -642 -20 29 -8 342 17 442 29 115 56
196 88 265 10 23 19 44 19 47 0 15 35 53 47 50 12 -2 13 -20 13 -162z"/>
<path d="M1434 3196 c-23 -15 -45 -28 -50 -28 -4 0 -21 -12 -38 -26 -16 -15
-57 -47 -90 -72 -184 -141 -280 -277 -337 -479 -105 -377 -87 -489 109 -672
151 -140 223 -138 472 18 18 11 52 29 76 41 24 12 49 25 56 29 7 4 44 23 84
43 101 50 101 51 -32 139 -120 79 -206 172 -234 251 -9 24 -24 64 -34 88 -28
67 -32 253 -9 337 9 33 17 66 17 74 0 8 5 26 11 40 7 14 16 38 20 53 4 15 19
58 32 94 37 101 22 120 -53 70z m22 -80 c-15 -18 -25 -14 -19 7 4 17 2 19 -12
16 -10 -3 -17 -1 -17 4 0 5 9 9 20 9 10 0 22 5 26 10 4 7 7 2 9 -12 1 -13 -2
-28 -7 -34z m-56 21 c0 -4 -5 -9 -12 -12 -7 -3 -12 0 -12 7 0 7 5 12 12 12 7
0 12 -3 12 -7z m-80 -77 c-5 -7 -13 -12 -17 -12 -3 0 -4 5 -2 12 3 7 10 12 17
12 10 0 10 -2 2 -12z m105 -31 c-7 -6 -9 -2 -9 12 0 26 11 38 15 15 1 -10 -2
-22 -6 -27z m-17 -37 c0 -9 -5 -16 -12 -16 -22 0 -14 24 10 31 1 1 2 -6 2 -15z
m-184 -4 c0 -7 -5 -12 -12 -12 -7 0 -12 5 -12 12 0 7 5 12 12 12 7 0 12 -5 12
-12z m-32 -32 c0 -22 -25 -52 -43 -52 -6 0 -13 -6 -16 -13 -3 -6 -9 -10 -13
-7 -14 9 -9 17 24 39 18 12 30 25 28 29 -6 9 2 24 12 24 5 0 8 -9 8 -20z
m-132 -163 c-6 -19 -20 -23 -20 -7 0 12 17 32 22 26 2 -1 1 -10 -2 -19z m-77
-139 c-6 -12 -11 -14 -13 -8 -5 15 5 36 14 30 5 -3 5 -11 -1 -22z m-62 -234
c-1 -25 -6 -42 -10 -39 -4 2 -6 19 -4 38 2 18 4 36 5 39 2 31 11 -5 9 -38z
m511 -8 c-1 -19 -11 -5 -19 28 -6 19 -5 19 7 4 6 -8 12 -22 12 -32z m-528
-164 c0 -8 -5 -16 -12 -19 -10 -4 -12 3 -12 37 0 42 0 42 12 19 7 -13 12 -29
12 -37z m591 36 c2 -13 1 -14 -10 -5 -15 13 -17 28 -3 23 6 -2 11 -10 13 -18z
m44 -13 c12 -14 13 -18 4 -24 -8 -5 -12 -2 -14 9 -1 9 -5 16 -10 16 -4 0 -7 4
-7 8 0 13 11 9 27 -9z m-627 -120 c0 -4 9 -22 20 -40 12 -18 19 -38 18 -46 -3
-11 -4 -11 -10 3 -4 9 -13 25 -21 36 -18 25 -29 69 -16 61 5 -3 9 -9 9 -14z
m785 -5 c53 -36 55 -43 17 -67 -60 -37 -106 -50 -106 -30 0 5 7 7 17 4 11 -3
23 2 36 15 11 11 27 24 36 28 15 9 14 10 -15 33 -40 32 -39 31 -21 31 8 0 24
-6 36 -14z m-713 -90 c0 -4 -4 -8 -8 -8 -13 0 -9 -17 6 -28 8 -6 11 -13 8 -16
-10 -11 -30 13 -30 37 0 15 4 23 12 23 7 0 12 -4 12 -8z m572 -63 c-21 -20
-92 -32 -76 -13 6 7 15 11 20 9 5 -2 21 3 36 11 33 17 42 14 20 -7z m-380
-116 c0 -2 2 -10 5 -17 5 -13 4 -13 -20 -1 -30 16 -31 21 -5 21 11 0 20 -2 20
-3z"/>
<path d="M1908 3198 c-2 -5 -6 -138 -8 -294 -2 -156 -5 -295 -6 -308 -8 -128
4 -1483 13 -1496 14 -19 66 2 77 32 11 29 19 2013 8 2038 -14 30 -76 51 -84
28z m56 -27 c17 -17 11 -2021 -6 -2041 -41 -50 -42 -46 -38 1904 0 161 5 176
44 137z"/>
<path d="M2076 3143 c-8 -23 -8 -207 0 -230 6 -19 8 -19 67 -15 74 6 221 -7
266 -22 18 -7 43 -12 56 -12 12 0 35 -6 50 -13 29 -14 53 -11 53 7 0 21 -142
144 -192 168 -7 4 -32 17 -56 31 -183 102 -234 120 -244 86z m108 -35 c24 -12
58 -30 76 -41 18 -10 41 -23 52 -28 70 -34 147 -89 198 -142 24 -25 21 -27
-27 -17 -21 5 -59 12 -83 17 -24 4 -77 13 -118 20 -68 12 -98 12 -156 -2 -28
-6 -39 19 -34 75 2 21 3 63 4 93 0 64 5 65 88 25z"/>
<path d="M1011 3101 c-40 -14 -81 -29 -92 -34 -10 -5 -37 -17 -59 -27 -71 -30
-156 -74 -182 -93 -228 -168 -343 -286 -418 -426 -10 -18 -22 -37 -26 -43 -66
-82 -149 -308 -190 -514 -6 -31 -15 -73 -19 -93 -22 -98 -18 -467 7 -539 4
-13 15 -54 24 -91 26 -104 86 -209 120 -209 22 0 23 40 24 615 0 292 2 534 4
537 18 29 218 51 304 34 59 -12 116 -27 148 -39 83 -31 84 -29 91 126 4 88 10
135 21 168 9 26 16 55 16 65 0 22 38 123 70 186 46 90 57 111 64 115 4 3 17
21 28 41 20 33 42 61 100 124 114 123 106 145 -35 97z m77 -16 c0 -5 -15 -26
-34 -46 -78 -82 -106 -120 -191 -255 -73 -115 -128 -317 -140 -507 -7 -103 -4
-102 -96 -70 -133 45 -316 50 -404 11 -49 -21 -50 -28 -46 -306 5 -441 0 -850
-11 -846 -36 12 -100 182 -123 330 -28 177 -14 479 29 616 4 13 15 53 25 88
51 191 159 413 247 509 17 19 32 39 32 45 0 5 5 12 10 16 6 3 22 20 37 38 41
47 135 126 261 217 13 10 46 29 72 42 26 14 53 28 60 32 25 14 118 53 185 77
59 21 87 24 87 9z"/>
<path d="M12403 3074 c-94 -18 -146 -195 -97 -330 24 -67 87 -112 155 -112
157 0 177 338 24 427 -35 20 -46 23 -82 15z m82 -39 c119 -77 105 -379 -17
-379 -110 0 -156 63 -153 212 4 158 75 229 170 167z"/>
<path d="M10368 3001 c-20 -13 -44 -30 -53 -39 -25 -25 -155 -110 -187 -122
-102 -41 -112 -113 -26 -193 40 -37 79 -40 121 -9 12 9 30 19 41 22 10 3 24
11 30 17 6 6 17 11 23 11 7 0 22 7 33 16 11 9 26 16 33 16 8 0 18 4 23 9 5 5
38 19 73 31 111 36 131 109 53 188 -82 82 -107 90 -164 53z m101 -19 c46 -41
51 -47 70 -77 42 -67 25 -98 -75 -132 -72 -24 -138 -52 -144 -60 -5 -8 -126
-70 -151 -77 -15 -5 -26 2 -62 39 -74 76 -68 96 49 158 72 38 150 91 179 122
11 12 23 21 27 21 4 0 17 7 28 16 28 22 46 20 79 -10z"/>
<path d="M11708 2935 c-36 -20 -36 -21 -36 -296 0 -301 7 -277 -79 -284 -74
-6 -80 -9 -93 -41 -34 -80 28 -218 96 -218 69 0 67 7 64 -328 -4 -477 5 -562
65 -591 13 -7 29 -15 37 -18 14 -7 65 -21 102 -28 57 -11 80 94 67 301 -2 45
-2 216 1 378 7 342 1 321 97 320 80 0 89 16 86 139 -3 120 -11 131 -90 131
-90 0 -90 2 -60 373 10 115 -154 218 -257 162z m166 -36 c70 -35 73 -47 61
-239 -18 -288 -21 -277 79 -284 79 -5 82 -11 79 -127 -2 -94 -10 -107 -57 -99
-40 6 -80 -4 -102 -26 -20 -20 -20 -20 -21 -458 -2 -573 6 -542 -126 -494
-109 40 -106 22 -106 541 -1 418 1 407 -83 407 -48 0 -86 64 -86 145 0 58 11
68 84 73 102 8 95 -14 100 306 4 264 4 264 31 273 32 10 110 1 147 -18z"/>
<path d="M2093 2811 c-12 -13 -2 -35 44 -91 45 -55 71 -91 171 -230 20 -28 36
-55 36 -61 0 -5 6 -18 14 -29 21 -30 25 -198 6 -275 -20 -82 -61 -184 -129
-319 -32 -65 -59 -122 -59 -127 0 -5 -8 -19 -17 -32 -21 -30 -30 -87 -14 -87
10 0 132 59 246 119 16 9 34 18 41 20 7 3 26 14 44 24 18 11 66 37 108 59 42
22 105 55 140 74 35 19 75 40 88 46 13 7 35 20 48 30 13 9 40 25 60 35 64 32
81 83 56 170 -4 15 -8 38 -8 53 0 193 -227 461 -471 554 -126 48 -380 90 -404
67z m174 -42 c18 -7 24 -41 7 -41 -6 0 -9 3 -7 7 3 4 -4 11 -15 17 -30 16 -17
30 15 17z m-65 -23 c7 -13 11 -31 8 -44 -3 -15 0 -23 9 -27 14 -5 18 -27 5
-27 -4 0 -8 3 -8 8 0 4 -8 15 -18 24 -18 17 -18 17 -2 29 16 11 16 12 -2 16
-10 3 -18 8 -18 12 0 5 -4 5 -9 2 -5 -3 -12 0 -15 6 -4 6 -3 13 2 17 19 11 35
6 48 -16z m69 -134 c2 -13 1 -14 -10 -5 -15 13 -17 28 -3 23 6 -2 11 -10 13
-18z m671 -597 c-2 -6 -19 -17 -38 -25 -34 -14 -35 -14 -20 0 34 29 64 42 58
25z m-454 -255 c-11 -9 -23 -16 -26 -16 -11 0 4 23 17 27 26 7 29 4 9 -11z
m-249 -65 c8 -12 8 -19 1 -26 -10 -10 -24 6 -24 29 0 19 10 18 23 -3z m129 5
c0 -7 -7 -12 -16 -12 -18 0 -28 13 -14 19 19 7 30 5 30 -7z m-152 -44 c0 -9
-16 -19 -21 -13 -6 5 4 21 13 21 5 0 8 -3 8 -8z"/>
<path d="M2085 2515 c-7 -16 -6 -640 0 -656 6 -15 30 -14 44 3 16 19 79 143
79 156 0 5 5 20 12 33 24 47 39 170 28 232 -23 125 -140 291 -163 232z m57
-46 c60 -66 99 -193 88 -288 -11 -97 -96 -310 -119 -297 -9 6 -10 612 0 612 3
0 17 -12 31 -27z"/>
<path d="M13832 2522 c-48 -17 -96 -78 -124 -155 -90 -253 -111 -371 -111
-643 -1 -322 29 -402 184 -484 26 -14 58 -32 71 -40 170 -111 276 -66 387 164
135 279 129 749 -13 980 -28 45 -126 120 -159 120 -8 0 -29 7 -47 16 -18 9
-40 16 -49 16 -9 0 -29 5 -44 11 -34 14 -79 21 -95 15z m104 -37 c24 -7 60
-16 80 -21 98 -25 175 -87 216 -172 157 -331 78 -949 -142 -1103 -70 -49 -149
-31 -300 69 -12 8 -26 14 -33 14 -31 0 -117 119 -117 162 0 7 -6 26 -14 43
-17 39 -25 354 -11 426 5 25 20 104 33 177 14 73 30 144 36 158 7 15 12 33 12
40 0 8 7 28 16 46 9 18 16 37 16 43 0 15 32 72 52 93 41 45 70 49 156 25z"/>
<path d="M13962 2230 c-106 -133 -163 -713 -80 -823 42 -55 114 16 138 137 3
15 9 32 13 37 35 43 58 405 32 499 -6 20 -13 53 -16 74 -10 64 -61 109 -87 76z
m53 -29 c10 -13 17 -33 17 -44 0 -12 6 -56 14 -99 16 -92 18 -222 3 -306 -6
-33 -13 -78 -17 -100 -25 -144 -84 -262 -120 -240 -48 30 -64 380 -25 540 61
250 89 305 128 249z"/>
<path d="M11112 2505 c-22 -18 -23 -36 -24 -369 0 -77 -5 -194 -12 -260 -6
-66 -13 -148 -16 -183 -9 -116 -105 -290 -127 -232 -8 20 -5 508 3 543 40 173
22 376 -36 411 -113 69 -212 37 -212 -69 0 -25 -7 -107 -16 -182 -18 -155 -23
-605 -7 -664 5 -18 12 -50 17 -72 20 -101 89 -207 145 -225 9 -3 26 -12 37
-20 63 -46 128 -36 193 30 42 42 50 43 68 7 49 -104 185 -145 212 -63 22 65
24 1238 3 1270 -43 66 -183 113 -228 78z m112 -22 c48 -16 86 -41 97 -62 10
-18 11 -1205 2 -1259 -14 -81 -170 -2 -187 94 -7 41 -33 35 -81 -19 -106 -118
-284 -39 -341 151 -43 140 -48 358 -21 776 17 260 24 277 115 264 128 -19 142
-60 115 -333 -14 -141 -20 -572 -9 -625 28 -129 144 47 174 262 7 52 22 486
24 693 0 71 30 87 112 58z"/>
<path d="M13012 2499 c-18 -19 -84 -125 -84 -134 0 -2 -12 -31 -27 -63 -46
-100 -66 -161 -85 -262 -5 -24 -15 -71 -22 -104 -21 -91 -20 -432 1 -500 25
-81 63 -129 157 -199 193 -142 296 -128 421 56 19 28 59 108 59 119 0 3 5 17
11 31 60 137 55 187 -28 267 -48 48 -71 57 -101 41 -20 -11 -66 -98 -66 -126
0 -26 -72 -152 -106 -187 -8 -8 -14 -17 -14 -20 0 -18 -49 -36 -63 -23 -15 16
-16 370 0 411 4 12 13 59 19 106 6 46 15 98 19 116 5 18 14 59 22 92 27 124
64 124 54 -1 -11 -127 24 -200 105 -223 104 -29 148 31 150 203 3 257 -3 275
-98 327 -24 13 -48 27 -52 30 -5 4 -23 11 -40 15 -68 17 -115 32 -131 40 -30
17 -80 11 -101 -12z m96 -6 c17 -6 54 -18 80 -25 197 -57 224 -94 224 -302 0
-233 -20 -277 -116 -251 -79 21 -96 53 -96 184 0 127 -8 149 -51 133 -66 -24
-155 -728 -105 -828 20 -40 60 -43 90 -6 71 84 110 153 142 249 40 117 112
112 172 -12 44 -89 -74 -359 -192 -442 -77 -54 -155 -41 -273 47 -24 17 -54
39 -67 49 -128 94 -161 409 -80 763 6 26 14 60 16 75 3 14 11 36 17 48 6 11
11 26 11 33 0 6 12 36 27 68 16 31 32 65 37 76 55 129 96 164 164 141z"/>
<path d="M5720 2491 c-14 -19 -16 -31 -15 -94 3 -139 -10 -641 -17 -661 -4
-11 -11 -45 -16 -76 -16 -101 -67 -204 -100 -204 -31 0 -41 193 -22 396 14
151 28 464 22 492 -19 87 -202 137 -247 68 -36 -55 -70 -732 -45 -888 24 -149
57 -235 106 -281 36 -33 95 -75 107 -75 5 0 19 -5 32 -12 47 -24 78 -14 147
47 60 54 61 54 72 13 26 -95 174 -146 212 -73 26 51 18 1270 -9 1299 -61 64
-192 92 -227 49z m165 -26 c73 -36 69 11 65 -690 -4 -617 -4 -617 -23 -635
-51 -51 -149 17 -171 118 -7 33 -24 27 -76 -26 -83 -86 -151 -85 -259 5 -55
45 -63 57 -99 163 -37 109 -35 580 5 938 8 70 23 88 78 87 127 -1 175 -102
143 -301 -24 -149 -30 -621 -8 -673 21 -51 66 -23 109 69 5 11 12 27 17 35 39
75 67 472 62 856 -1 73 5 80 72 75 29 -3 67 -12 85 -21z"/>
<path d="M7281 2459 c-34 -38 -80 -120 -101 -180 -36 -101 -51 -154 -67 -227
-10 -44 -23 -106 -30 -137 -20 -88 -20 -376 0 -435 42 -125 73 -179 136 -243
93 -95 230 -142 303 -104 31 16 110 77 110 84 0 3 14 23 31 45 115 146 155
270 117 363 -9 24 -64 55 -96 57 -34 1 -53 -16 -105 -97 -15 -23 -32 -48 -37
-54 -143 -172 -222 -166 -222 17 0 96 45 148 127 148 17 0 48 5 70 12 21 7 64
14 95 17 31 2 63 9 72 14 9 6 26 13 38 16 36 9 41 30 42 165 0 119 -15 291
-28 308 -3 4 -9 20 -12 35 -30 140 -167 233 -344 233 -67 0 -67 0 -99 -37z
m205 5 c102 -32 178 -87 198 -143 36 -104 43 -131 51 -207 12 -112 12 -297 -1
-321 -12 -24 -55 -40 -134 -50 -261 -34 -296 -58 -296 -207 0 -132 39 -177
120 -140 35 16 150 133 172 175 47 91 87 114 136 76 67 -53 50 -182 -42 -311
-23 -33 -50 -71 -58 -85 -46 -72 -154 -126 -215 -108 -289 86 -402 403 -300
841 7 29 16 69 19 89 20 113 109 322 159 375 37 39 101 44 191 16z"/>
<path d="M7439 2262 c-26 -20 -98 -293 -87 -323 10 -25 46 -25 110 -2 72 26
77 35 71 135 -10 156 -46 229 -94 190z m51 -43 c12 -21 15 -45 16 -132 2 -107
2 -107 -36 -125 -85 -41 -114 -26 -91 48 6 19 15 54 20 78 6 24 13 53 17 64 3
11 11 37 16 58 12 46 34 50 58 9z"/>
<path d="M10054 2441 c-63 -67 -108 -132 -136 -197 -86 -197 -100 -273 -56
-313 83 -78 144 -65 197 42 13 26 30 54 38 63 7 9 30 47 50 84 61 116 73 105
75 -78 2 -162 0 -170 -50 -170 -37 0 -144 -44 -163 -67 -6 -7 -16 -13 -22 -13
-15 0 -106 -86 -126 -120 -48 -77 -68 -224 -39 -276 5 -9 16 -32 24 -52 59
-141 195 -207 320 -155 50 21 84 18 115 -12 52 -49 143 -59 176 -19 21 24 28
960 9 1058 -18 88 -44 131 -105 168 -227 140 -228 140 -307 57z m150 14 c22
-14 58 -35 80 -46 111 -58 149 -109 165 -223 9 -66 4 -987 -5 -1012 -15 -37
-104 -27 -153 18 -40 37 -58 40 -127 16 -273 -94 -450 291 -237 514 20 21 40
38 44 38 3 0 20 10 36 23 57 44 104 62 178 69 59 6 62 14 62 182 0 114 -3 150
-12 164 -24 38 -66 12 -103 -63 -14 -29 -35 -65 -46 -80 -11 -15 -32 -50 -46
-78 -45 -84 -73 -95 -138 -51 -65 44 -64 81 7 250 49 116 42 105 113 197 86
113 114 125 182 82z"/>
<path d="M10144 1623 c-15 -5 -35 -15 -45 -24 -9 -8 -20 -15 -24 -15 -14 0
-74 -69 -80 -92 -18 -73 57 -104 169 -69 62 19 84 48 84 111 0 83 -31 109
-104 89z m75 -28 c8 -20 6 -87 -4 -114 -21 -60 -199 -68 -199 -10 0 72 181
183 203 124z"/>
<path d="M12329 2473 c-36 -38 -37 -63 -37 -637 0 -610 1 -622 74 -672 37 -25
140 -29 174 -7 28 18 28 15 32 519 3 251 7 496 10 544 10 148 6 182 -27 215
-61 63 -184 83 -226 38z m156 -13 c60 -18 85 -61 80 -136 -3 -31 -7 -294 -10
-584 -5 -628 2 -584 -96 -579 -140 7 -141 8 -145 587 -5 762 -4 764 171 712z"/>
<path d="M380 2129 c-73 -18 -69 11 -66 -433 2 -372 2 -372 25 -375 12 -1 28
3 36 9 13 12 120 49 166 58 27 5 188 -16 210 -27 7 -4 29 -10 49 -12 20 -3 49
-11 64 -16 15 -6 50 -17 76 -25 26 -8 96 -34 155 -58 143 -56 245 -55 357 4
52 27 52 27 52 258 1 254 5 245 -106 207 -133 -46 -344 -19 -398 51 -134 174
-329 313 -480 342 -20 4 -49 11 -64 16 -31 9 -41 9 -76 1z m90 -37 c9 -7 22
-10 29 -7 6 2 14 1 16 -4 9 -14 -57 -20 -76 -6 -23 16 -32 16 -26 1 3 -7 -2
-13 -16 -17 -16 -4 -21 -10 -21 -27 0 -13 -4 -24 -9 -26 -7 -2 -8 -8 -3 -18
10 -25 9 -63 -2 -75 -12 -12 -11 -19 -14 93 -2 70 -1 83 11 90 20 12 91 9 111
-4z m114 -28 c0 -4 -4 -8 -10 -8 -7 0 -6 -3 2 -8 10 -6 10 -8 -2 -12 -19 -8
-60 19 -45 29 15 9 55 9 55 -1z m80 -32 c10 -6 9 -8 -6 -8 -9 0 -19 4 -22 8
-6 10 12 10 28 0z m46 -30 c2 -6 -3 -10 -12 -10 -8 0 -15 6 -15 12 0 15 22 13
27 -2z m-38 -20 c0 -10 -13 -7 -33 10 -19 15 -19 15 7 6 14 -5 26 -12 26 -16z
m100 -27 c29 -25 30 -27 9 -19 -12 4 -26 6 -31 3 -6 -4 -7 -1 -3 8 4 10 0 16
-11 19 -9 2 -14 7 -11 11 6 11 13 8 47 -22z m79 -71 c7 -11 13 -24 13 -29 0
-11 -30 14 -41 35 -12 22 13 17 28 -6z m115 -129 c-8 -8 -21 5 -35 32 -13 25
-13 25 13 -1 15 -15 24 -28 22 -31z m462 -77 c-7 -4 -16 -5 -18 -2 -7 7 15 20
25 14 4 -2 1 -8 -7 -12z m-1048 -262 c15 -8 22 -8 31 -1 7 6 16 8 20 6 4 -3
10 -2 13 3 3 4 15 8 28 8 13 0 25 4 28 8 6 9 104 2 124 -9 12 -6 -5 -9 -80
-11 -27 0 -46 -6 -74 -21 -8 -4 -18 -7 -22 -7 -5 0 -24 -7 -42 -16 -56 -27
-65 -23 -59 26 3 23 6 96 7 162 2 120 2 120 4 -9 2 -127 3 -129 22 -139z m352
0 c3 -4 17 -8 32 -8 19 0 30 -5 36 -16 9 -18 -10 -24 -20 -7 -3 4 -13 7 -21 4
-14 -3 -60 7 -71 17 -5 4 17 18 30 18 5 0 11 -4 14 -8z m136 -40 c16 -18 7
-21 -24 -7 -15 7 -18 12 -10 16 15 10 18 9 34 -9z m108 -32 c8 -15 7 -16 -14
-11 -33 8 -39 13 -21 20 23 9 26 8 35 -9z m484 -31 c2 -19 -1 -27 -12 -33 -19
-10 -21 0 -7 39 10 30 15 28 19 -6z m-365 -7 c14 -8 25 -16 25 -20 0 -12 -15
-13 -27 -2 -6 7 -17 12 -23 12 -7 0 -17 5 -22 12 -14 17 15 16 47 -2z m125
-58 c13 -6 12 -7 -10 -7 -14 -1 -27 3 -30 7 -6 10 18 10 40 0z m124 0 c-16
-10 -50 -10 -44 0 3 4 16 8 30 8 20 0 23 -2 14 -8z"/>
<path d="M3066 1901 c-37 -20 -82 -45 -102 -56 -19 -12 -41 -21 -48 -21 -7 0
-15 -5 -17 -12 -3 -7 -9 -12 -14 -12 -5 0 -42 -17 -83 -38 -40 -21 -139 -72
-220 -112 -379 -194 -361 -173 -278 -332 9 -16 16 -34 16 -40 0 -33 154 -252
208 -295 19 -15 53 -44 75 -64 45 -40 109 -80 194 -119 84 -39 89 -41 111 -31
19 9 25 17 94 123 42 65 105 202 113 248 4 17 11 41 16 52 6 11 16 49 23 84 8
35 20 91 27 124 16 74 25 364 13 417 -33 136 -31 135 -128 84z m84 1 c24 -29
34 -284 18 -436 -23 -204 -97 -434 -184 -566 -8 -13 -21 -36 -29 -50 -18 -36
-58 -68 -78 -63 -28 6 -74 25 -86 34 -6 5 -38 23 -71 40 -33 17 -62 33 -64 35
-2 3 -40 38 -84 77 -44 40 -91 88 -104 107 -13 18 -32 43 -41 55 -34 43 -131
231 -131 255 0 4 -6 13 -12 18 -8 6 -12 20 -10 34 3 29 -14 20 411 237 54 28
102 55 107 62 6 6 15 11 20 11 13 0 95 42 99 50 1 3 7 6 12 6 9 0 58 25 153
77 54 29 62 31 74 17z"/>
<path d="M1814 1919 c-8 -4 -24 -17 -36 -28 -12 -12 -35 -29 -50 -39 -59 -38
-104 -90 -104 -122 -2 -539 -1 -529 -65 -546 -16 -5 -40 -14 -52 -20 -13 -7
-27 -12 -33 -12 -5 0 -21 -5 -36 -11 -14 -7 -38 -16 -52 -21 -71 -27 -30 -112
86 -181 97 -57 274 -39 352 36 38 37 40 61 40 563 0 400 -1 410 -50 381z m27
-459 c-1 -472 0 -460 -51 -489 -128 -75 -280 -58 -384 43 -51 50 -51 69 0 91
21 9 49 21 63 28 14 6 32 11 40 11 8 0 22 6 31 12 8 7 23 12 32 12 58 0 66 28
72 267 3 122 4 236 2 254 -8 54 5 79 63 123 29 22 67 52 85 66 49 40 48 52 47
-418z"/>
<path d="M2140 1190 c-44 -73 -173 -209 -220 -233 -15 -7 -39 -21 -52 -29 -73
-47 -184 -84 -278 -93 -118 -11 -302 86 -350 184 -42 89 -62 93 -153 32 -69
-47 -116 -76 -151 -91 -11 -5 -31 -15 -44 -21 -32 -14 -136 -50 -176 -60 -18
-5 -70 -11 -116 -14 -98 -6 -104 -18 -72 -161 59 -269 77 -309 140 -326 141
-38 312 18 446 147 51 49 93 75 120 75 4 0 39 -30 77 -66 206 -198 572 -180
776 37 33 35 56 19 134 -93 99 -144 152 -128 355 106 24 28 56 64 70 79 54 59
50 66 -102 189 -154 125 -282 268 -340 379 -17 34 -19 33 -64 -41z m52 -30 c0
-5 -7 -8 -16 -8 -18 0 -22 13 -6 18 12 5 22 0 22 -10z m47 -44 c18 -21 23 -44
9 -44 -4 0 -8 7 -8 16 0 10 -8 19 -20 24 -11 4 -20 11 -20 16 0 15 21 8 39
-12z m-1039 -89 c0 -9 -8 -10 -34 -6 -47 7 -54 16 -21 30 29 13 55 1 55 -24z
m-117 -39 c-13 -13 -27 -20 -38 -18 -15 2 -14 4 11 20 38 24 52 23 27 -2z
m1274 -6 c20 -19 25 -38 10 -38 -5 0 -10 7 -13 16 -2 8 -11 18 -19 20 -8 3
-15 8 -15 13 0 13 17 8 37 -11z m-1077 -61 c0 -5 -5 -9 -12 -9 -7 0 -12 5 -12
12 0 6 -9 18 -20 25 -11 7 -20 20 -20 28 0 13 6 10 32 -16 18 -17 32 -36 32
-40z m-256 23 c2 0 -3 -4 -11 -9 -11 -7 -18 -6 -28 5 -13 13 -3 14 39 4z m-88
-24 c0 -10 -23 -20 -29 -14 -7 7 5 22 17 22 7 0 12 -4 12 -8z m-40 -24 c0 -4
-9 -8 -20 -8 -11 0 -20 -4 -20 -8 0 -4 -6 -8 -13 -8 -11 0 -10 3 5 16 19 17
48 22 48 8z m424 -6 c0 -4 13 -11 28 -17 15 -5 28 -13 28 -18 0 -4 8 -7 18 -7
28 0 53 -20 41 -33 -8 -7 -13 -6 -23 4 -8 7 -25 19 -39 25 -14 6 -30 15 -37
19 -7 4 -18 10 -26 12 -17 5 -19 21 -2 21 7 0 12 -3 12 -6z m-516 -43 c8 -12
-1 -17 -20 -11 -9 3 -14 8 -12 13 7 10 26 9 32 -2z m1708 -12 c0 -6 -5 -11
-12 -11 -7 0 -12 7 -12 16 0 10 4 14 12 11 7 -3 12 -10 12 -16z m-1784 0 c0
-11 -6 -12 -34 -9 -19 2 -43 1 -54 -2 -19 -6 -19 -6 -2 -7 27 -1 30 -17 3 -17
-13 0 -25 5 -28 12 -7 19 -29 14 -29 -6 0 -10 -7 -22 -14 -27 -13 -8 -15 -7
-11 15 2 14 -1 26 -7 30 -16 10 31 20 109 22 59 3 67 1 67 -11z m1051 5 c-5
-5 -22 -10 -40 -12 -31 -4 -31 -4 -7 8 29 14 59 16 47 4z m-255 -36 c14 -11
13 -12 -14 -12 -29 0 -40 11 -20 19 15 6 17 5 34 -7z m1055 -11 c13 -13 20
-28 17 -32 -3 -6 3 -9 15 -9 24 0 36 -15 20 -25 -23 -15 -42 -4 -51 28 -6 20
-15 34 -26 38 -23 8 -30 23 -12 23 8 0 25 -11 37 -23z m-1407 -183 c-7 -8 -28
6 -28 19 0 12 1 12 16 -1 9 -8 14 -16 12 -18z m172 -65 c0 -4 -26 17 -34 27
-3 4 -6 13 -6 20 0 6 9 -1 20 -16 11 -15 20 -29 20 -31z m1184 32 c0 -4 -6 -9
-13 -12 -19 -8 -22 -6 -11 7 11 13 24 16 24 5z m-1426 -17 c-5 -9 -13 -16 -16
-16 -4 0 -3 7 2 16 5 9 12 16 16 16 5 0 4 -7 -2 -16z m887 -22 c-2 -8 -8 -15
-16 -17 -17 -3 -17 6 1 20 18 13 17 13 15 -3z m-911 -12 c-5 -15 -30 -17 -30
-3 0 8 7 13 17 13 9 0 15 -4 13 -10z m1374 -30 c-18 -17 -39 -31 -48 -31 -14
0 -13 1 5 11 12 6 23 17 26 24 2 6 10 12 17 12 6 0 12 4 12 8 0 4 4 8 10 8 5
0 -5 -14 -22 -32z m-1026 1 c11 -6 23 -16 25 -22 5 -13 -8 -15 -15 -3 -3 5
-14 12 -25 16 -10 4 -19 12 -19 16 0 5 3 8 6 6 3 -1 16 -7 28 -13z m-794 -21
c0 -11 -4 -20 -8 -20 -4 0 -8 11 -8 24 0 15 3 23 8 20 4 -3 8 -14 8 -24z m309
-32 c-3 -10 -34 -15 -50 -9 -7 3 -10 8 -8 12 6 9 61 7 58 -3z m611 -4 c10 -6
9 -8 -6 -8 -9 0 -19 4 -22 8 -6 10 12 10 28 0z m224 0 c0 -4 -13 -8 -30 -7
-24 0 -27 1 -14 7 22 10 44 10 44 0z m-1101 -12 c3 -7 0 -12 -7 -12 -7 0 -12
5 -12 12 0 7 3 12 7 12 4 0 9 -5 12 -12z m57 -11 c5 -5 21 -9 36 -11 19 -2 14
-4 -18 -5 -42 -1 -54 4 -41 18 8 7 14 6 23 -2z"/>
<path d="M541 1216 c-90 -24 -177 -98 -205 -173 -5 -11 -17 -32 -28 -47 -64
-83 -73 -188 -20 -236 2 -2 16 -22 31 -44 72 -108 97 -92 97 63 0 141 -7 133
120 133 65 0 114 4 139 12 22 7 54 12 71 12 17 0 41 5 53 11 12 7 36 14 53 17
18 3 37 11 44 16 7 6 25 16 40 22 40 17 98 72 95 90 -3 16 -5 18 -90 56 -102
47 -142 60 -201 68 -109 16 -142 16 -199 0z m291 -45 c46 -16 95 -35 108 -43
13 -8 34 -16 46 -19 14 -3 22 -11 22 -19 0 -15 -59 -66 -76 -66 -6 0 -20 -8
-33 -18 -12 -10 -41 -22 -63 -27 -22 -5 -67 -15 -100 -23 -36 -8 -113 -16
-192 -19 -162 -6 -154 2 -150 -149 1 -79 0 -104 -8 -103 -5 0 -14 1 -20 2 -5
0 -21 18 -34 39 -13 21 -25 40 -28 42 -22 18 -41 66 -36 90 7 34 55 138 67
145 5 3 9 12 9 18 0 13 34 61 75 106 78 84 242 101 413 44z"/>
<path d="M12021 796 c-39 -20 -72 -78 -131 -225 -44 -112 -66 -118 -91 -26
-15 56 -30 98 -45 124 -6 10 -10 23 -10 29 0 57 -246 90 -279 37 -25 -40 -33
-568 -9 -605 19 -29 122 -50 165 -33 21 7 21 7 18 185 -3 163 -2 178 11 180 9
2 15 -4 18 -19 3 -13 12 -39 20 -59 8 -20 23 -58 33 -84 49 -130 166 -137 214
-12 14 36 29 71 33 79 4 7 14 33 23 57 39 109 35 102 56 89 9 -6 10 -25 6 -96
-3 -49 -7 -128 -10 -176 -6 -99 0 -116 41 -134 39 -16 145 -15 151 2 10 26 6
641 -5 649 -41 34 -171 58 -209 38z m70 -13 c105 -27 118 -32 125 -52 12 -31
10 -597 -2 -609 -19 -20 -111 -8 -142 19 -12 10 -11 131 4 320 9 122 -38 142
-80 33 -96 -250 -105 -268 -136 -271 -67 -6 -94 13 -123 86 -10 26 -25 61 -33
79 -8 18 -18 46 -21 64 -6 37 -24 76 -35 76 -29 0 -32 -21 -32 -218 1 -221 4
-212 -65 -198 -76 16 -83 27 -90 131 -7 113 13 474 26 487 18 18 200 3 221
-18 19 -19 84 -181 84 -210 0 -8 10 -25 23 -39 32 -36 48 -19 93 101 50 133
109 228 142 228 4 0 23 -4 41 -9z"/>
<path d="M13883 800 c-20 -8 -35 -30 -63 -96 -12 -29 -24 -58 -28 -65 -3 -6
-16 -37 -28 -68 -11 -30 -27 -69 -36 -87 -24 -52 -56 -129 -71 -174 -30 -84
-35 -98 -45 -122 -35 -81 -20 -121 48 -132 82 -13 114 17 155 149 15 49 31 56
140 62 113 6 129 2 137 -35 13 -60 68 -132 104 -136 139 -15 142 -7 72 228
-15 53 -32 110 -36 128 -5 18 -14 48 -21 68 -7 20 -15 52 -19 72 -4 20 -18 66
-31 104 -14 37 -25 68 -25 69 0 21 -214 51 -253 35z m136 -20 c103 -20 107
-24 138 -140 6 -24 20 -69 30 -100 11 -31 26 -83 33 -116 14 -63 41 -153 69
-237 23 -69 15 -82 -46 -79 -65 3 -121 59 -142 143 -16 62 -293 48 -293 -14 0
-6 -8 -26 -19 -46 -10 -19 -23 -49 -28 -65 -19 -58 -153 -81 -153 -26 0 23 70
222 108 305 7 14 12 30 12 35 0 5 5 19 11 31 28 56 45 94 45 101 0 4 7 22 16
40 9 18 16 36 16 41 0 10 53 114 66 129 11 13 60 13 137 -2z"/>
<path d="M13966 598 c-22 -16 -89 -183 -80 -198 12 -19 146 -22 160 -3 14 20
13 43 -5 78 -9 16 -20 47 -25 69 -11 47 -31 69 -50 54z m35 -64 c5 -19 14 -47
21 -63 23 -57 15 -67 -56 -69 -71 -3 -76 3 -46 60 8 16 22 47 31 68 21 48 37
49 50 4z"/>
<path d="M4707 792 c-21 -8 -49 -46 -74 -100 -10 -22 -24 -50 -30 -63 -6 -12
-11 -29 -11 -37 0 -8 -5 -18 -11 -24 -7 -5 -14 -19 -17 -32 -3 -13 -23 -63
-44 -112 -22 -48 -43 -100 -47 -114 -4 -14 -17 -51 -29 -82 -54 -143 -47 -181
32 -192 43 -7 89 10 97 34 3 8 17 40 32 72 15 32 27 63 27 69 0 22 27 32 102
39 147 14 139 16 161 -30 11 -22 25 -49 31 -60 6 -11 13 -26 15 -33 11 -32 68
-56 123 -51 83 9 84 13 39 152 -13 40 -29 94 -36 120 -87 340 -117 416 -166
423 -41 6 -144 22 -161 25 -9 2 -24 0 -33 -4z m110 -27 c93 -13 117 -23 124
-53 2 -11 8 -27 11 -36 12 -25 43 -133 72 -244 14 -55 40 -143 57 -196 45
-139 42 -147 -49 -138 -52 5 -60 13 -101 100 -43 88 -37 85 -174 75 -101 -7
-141 -22 -141 -51 0 -17 -60 -140 -75 -153 -14 -12 -24 -14 -57 -9 -69 9 -75
30 -36 123 13 31 24 60 24 64 0 11 67 186 88 229 32 68 62 137 67 156 12 43
56 118 76 130 25 16 12 16 114 3z"/>
<path d="M4739 507 c-54 -116 -53 -113 -35 -131 13 -13 27 -16 74 -16 96 0
108 19 71 112 -8 20 -20 52 -26 72 -20 65 -41 56 -84 -37z m84 -19 c37 -102
34 -108 -55 -102 -57 3 -59 15 -20 98 36 76 49 77 75 4z"/>
<path d="M7400 782 c-27 -19 -71 -87 -71 -113 -1 -8 -6 -24 -12 -36 -6 -11
-26 -57 -45 -101 -18 -44 -38 -91 -43 -104 -6 -13 -18 -41 -28 -62 -9 -21 -17
-42 -17 -47 0 -5 -5 -20 -12 -34 -37 -82 -64 -181 -57 -210 14 -52 173 -46
173 8 0 9 31 79 58 133 13 25 61 39 158 45 87 6 90 3 117 -71 33 -96 90 -123
201 -97 25 6 13 94 -23 175 -4 9 -12 37 -18 62 -7 25 -15 50 -18 55 -3 5 -10
33 -15 62 -11 57 -55 204 -74 249 -28 65 -30 68 -58 73 -184 36 -182 36 -216
13z m161 -21 c67 -7 78 -17 101 -87 9 -29 28 -88 42 -130 14 -42 28 -96 32
-120 7 -44 12 -61 56 -198 32 -101 32 -122 -2 -123 -91 -5 -124 16 -153 96
-29 82 -33 84 -151 78 -144 -8 -154 -16 -210 -173 -14 -38 -56 -54 -107 -40
-35 9 -35 9 -30 53 5 38 56 192 77 229 4 8 8 18 8 23 0 5 5 20 11 34 15 33 84
194 98 229 54 129 72 147 135 140 22 -3 64 -8 93 -11z"/>
<path d="M7468 582 c-6 -10 -12 -23 -12 -31 0 -7 -16 -46 -37 -86 -52 -104
-36 -119 102 -100 69 9 71 13 35 121 -40 122 -57 140 -88 96z m50 -44 c57
-152 58 -149 -43 -159 -71 -6 -75 -1 -44 62 14 27 25 53 25 58 0 43 49 74 62
39z"/>
<path d="M8034 790 c-44 -11 -54 -97 -53 -448 1 -229 5 -246 58 -246 12 0 31
-5 44 -12 37 -19 74 -16 91 9 15 24 23 616 9 657 -6 16 -26 25 -99 42 -13 3
-36 2 -50 -2z m101 -33 c29 -9 29 -9 31 -313 2 -383 7 -364 -82 -344 -85 20
-80 1 -79 330 0 374 -1 370 130 327z"/>
<path d="M8607 794 c-21 -9 -79 -102 -79 -126 0 -7 -7 -26 -16 -42 -8 -17 -25
-55 -37 -85 -11 -31 -24 -62 -27 -68 -14 -27 -58 -135 -68 -165 -6 -18 -22
-62 -35 -100 -43 -116 -31 -158 44 -166 51 -6 85 13 103 57 7 18 20 46 29 63
8 16 15 34 15 40 0 58 218 91 262 41 10 -12 18 -26 18 -32 0 -15 40 -89 56
-103 17 -16 96 -25 140 -16 34 6 36 50 3 123 -8 19 -15 40 -15 47 0 7 -11 47
-24 90 -13 43 -28 94 -32 113 -4 19 -13 53 -20 75 -7 22 -18 60 -25 84 -32
110 -48 140 -76 145 -134 28 -194 34 -216 25z m122 -26 c23 -4 56 -9 71 -12
43 -6 61 -51 137 -340 33 -126 38 -142 62 -215 32 -95 31 -97 -37 -97 -75 0
-82 7 -142 138 -17 38 -28 41 -142 37 -129 -5 -143 -15 -193 -145 -19 -51 -40
-70 -78 -70 -43 0 -71 13 -71 32 0 22 25 122 33 132 5 7 30 73 77 200 6 18 14
36 18 40 4 5 18 37 32 72 14 35 29 67 33 72 4 4 7 13 7 21 0 22 37 97 60 121
23 25 55 28 133 14z"/>
<path d="M8664 566 c-5 -14 -23 -58 -40 -97 -42 -97 -29 -115 71 -104 93 9 96
17 54 143 -31 93 -63 115 -85 58z m64 -58 c7 -26 17 -58 22 -70 18 -42 -8 -58
-86 -53 -44 4 -50 22 -25 72 10 17 17 35 17 40 0 5 8 21 17 36 24 40 40 33 55
-25z"/>
<path d="M9628 795 c-53 -11 -52 1 -52 -339 -1 -369 -9 -342 96 -360 20 -4 51
-11 69 -17 70 -21 257 64 351 159 131 132 147 314 37 421 -99 97 -354 166
-501 136z m232 -30 c367 -60 436 -382 125 -585 -127 -82 -205 -97 -320 -62
-79 23 -73 -5 -73 339 0 303 0 303 26 310 39 11 169 10 242 -2z"/>
<path d="M9782 662 c-27 -21 -46 -419 -20 -444 62 -63 233 136 233 270 -1 61
-28 125 -65 150 -41 29 -124 42 -148 24z m138 -40 c27 -20 39 -46 60 -125 18
-65 -125 -280 -181 -272 -20 3 -29 309 -12 394 8 40 83 41 133 3z"/>
<path d="M12490 792 c-34 -14 -40 -47 -45 -252 -11 -414 -6 -433 109 -452 100
-17 94 -40 94 342 0 179 -3 330 -6 336 -17 26 -112 42 -152 26z m125 -32 c18
-9 25 -642 7 -653 -42 -26 -146 14 -152 58 -14 106 2 583 20 598 19 16 94 14
125 -3z"/>
<path d="M3747 781 c-19 -5 -37 -12 -40 -16 -10 -9 -11 -595 -2 -626 8 -27 27
-38 83 -47 17 -3 41 -10 53 -17 90 -46 335 76 430 214 97 141 72 331 -54 400
-16 8 -40 22 -53 30 -104 61 -310 92 -417 62z m194 -17 c435 -27 504 -436 107
-632 -106 -53 -291 -51 -319 3 -13 26 -10 606 3 617 13 11 85 23 116 19 11 -1
53 -4 93 -7z"/>
<path d="M3900 646 c-17 -24 -18 -418 -1 -442 24 -33 111 27 174 122 76 115
75 227 -3 292 -56 48 -146 62 -170 28z m141 -26 c105 -73 75 -266 -59 -372
-74 -59 -74 -60 -75 172 -1 123 1 205 6 215 13 23 84 15 128 -15z"/>
<path d="M13144 784 c-20 -4 -83 -7 -141 -7 -152 -1 -155 -10 -155 -383 0
-286 2 -291 111 -300 78 -7 89 8 89 119 0 104 14 128 54 93 78 -68 158 -129
215 -164 13 -8 34 -21 48 -30 56 -36 155 -15 155 33 0 17 3 14 -112 119 -108
99 -104 95 -104 108 0 12 37 44 52 44 5 0 25 11 43 24 18 13 35 24 37 24 11 0
78 62 93 85 75 121 -173 272 -385 235z m164 -25 c121 -22 233 -116 216 -181
-8 -32 -76 -89 -162 -136 -104 -57 -106 -62 -40 -123 29 -26 75 -69 103 -95
28 -26 53 -48 57 -48 3 0 9 -7 14 -15 10 -19 -17 -57 -40 -57 -56 0 -207 93
-322 198 -85 77 -100 65 -109 -86 -7 -114 -9 -117 -66 -104 -93 21 -87 3 -86
283 0 359 3 369 95 363 29 -2 77 -1 108 2 89 9 181 9 232 -1z"/>
<path d="M13112 675 c-61 -16 -69 -28 -75 -114 -8 -111 22 -131 126 -82 18 8
51 23 73 33 100 43 151 138 88 164 -36 15 -153 15 -212 -1z m204 -23 c27 -26
25 -36 -9 -70 -25 -25 -101 -70 -119 -70 -4 0 -13 -6 -21 -13 -10 -9 -30 -13
-61 -14 -46 -1 -46 -1 -48 65 -3 83 1 90 63 107 82 22 171 20 195 -5z"/>
<path d="M5780 776 c-53 -3 -97 -6 -97 -7 -15 -13 -23 -612 -8 -653 10 -29 62
-52 120 -52 74 0 80 11 83 143 2 118 -8 102 84 125 275 68 376 287 178 390
-108 56 -165 65 -360 54z m312 -51 c224 -107 156 -300 -131 -372 -107 -27
-105 -24 -105 -137 0 -134 -3 -140 -69 -133 -102 11 -98 -3 -99 368 -2 348
-24 311 184 307 156 -2 156 -2 220 -33z"/>
<path d="M5890 674 c-42 -8 -64 -175 -30 -224 38 -54 163 21 175 104 13 84
-53 138 -145 120z m112 -40 c58 -52 -37 -206 -110 -178 -26 10 -32 176 -6 192
19 11 98 2 116 -14z"/>
<path d="M10503 776 c-149 -6 -143 9 -146 -364 -2 -336 -12 -321 219 -318 230
3 288 15 288 59 0 66 -35 79 -191 74 -132 -5 -131 -5 -122 106 3 46 8 48 145
57 130 8 157 18 155 57 -3 58 -26 68 -169 73 -126 4 -126 4 -126 45 1 71 10
80 91 86 179 13 213 30 178 88 -29 46 -56 49 -322 37z m293 -32 c46 -43 20
-59 -106 -68 -146 -9 -154 -15 -154 -111 0 -64 -9 -60 151 -63 109 -2 115 -3
130 -21 38 -47 17 -62 -97 -68 -191 -12 -192 -13 -191 -121 1 -70 16 -97 50
-89 111 28 269 0 269 -48 0 -22 1 -22 -148 -39 -198 -22 -278 -14 -315 30 -13
16 -17 203 -9 400 10 219 2 209 152 212 63 1 117 4 119 7 14 14 130 -3 149
-21z"/>
<path d="M6423 767 c-48 -18 -51 -37 -51 -353 0 -335 -7 -310 95 -325 88 -13
91 -10 100 135 5 83 18 99 53 66 56 -51 254 -189 284 -197 11 -3 28 -10 38
-15 27 -13 88 17 95 47 6 23 -9 38 -165 178 -31 28 -55 55 -54 59 3 9 84 63
116 77 16 8 34 22 96 80 66 61 19 159 -108 222 -64 32 -198 42 -370 27 -24 -2
-58 -1 -76 2 -18 3 -42 2 -53 -3z m445 -25 c124 -40 195 -122 167 -193 -5 -15
-101 -93 -113 -93 -4 0 -12 -5 -17 -11 -5 -6 -29 -21 -54 -34 -82 -41 -82 -43
63 -170 106 -93 117 -110 84 -133 -35 -24 -108 -2 -175 54 -20 16 -39 30 -43
30 -3 0 -31 20 -61 44 -30 24 -56 44 -57 44 -2 0 -19 14 -38 32 -39 36 -39 36
-60 21 -12 -9 -15 -25 -17 -94 -6 -144 -3 -138 -69 -133 -96 7 -98 15 -92 347
6 301 6 301 118 294 37 -2 79 0 92 4 49 16 211 10 272 -9z"/>
<path d="M6650 667 c-79 -13 -105 -40 -93 -97 2 -13 0 -38 -4 -56 -19 -69 23
-95 93 -58 16 9 35 16 42 16 7 0 32 11 56 24 24 13 52 27 61 31 42 19 81 91
63 118 -18 28 -120 38 -218 22z m203 -31 c15 -20 15 -20 -15 -52 -39 -43 -143
-103 -179 -104 -9 0 -22 -5 -27 -12 -12 -15 -43 -16 -54 -2 -12 15 1 148 16
163 29 29 239 35 259 7z"/>
<path d="M1175 382 c-29 -24 -83 -57 -179 -110 -114 -63 -113 -73 16 -138 132
-66 199 -87 372 -115 105 -16 314 -16 395 1 31 7 68 12 81 12 29 0 166 34 204
50 15 7 44 18 64 26 77 28 152 71 152 85 0 9 -20 29 -50 50 -57 41 -72 54
-109 100 -40 49 -46 49 -164 -9 -241 -117 -407 -124 -573 -24 -24 14 -48 26
-53 26 -5 0 -13 5 -19 12 -36 44 -105 61 -137 34z m96 -29 c217 -148 435 -174
623 -74 8 5 37 19 66 33 29 13 62 30 75 37 32 18 56 8 89 -37 16 -22 40 -46
53 -52 98 -51 89 -84 -33 -124 -11 -4 -40 -15 -64 -24 -323 -126 -787 -108
-1065 42 -79 43 -88 61 -41 81 16 8 37 18 46 23 24 15 132 85 164 107 35 24
33 25 87 -12z"/>
</g>
<g transform="translate(0.000000,410.000000) scale(0.125000,-0.125000)"
fill="#bcd0e2" stroke="none">
<path d="M9331 3263 c-36 -22 -36 -23 -42 -644 -6 -601 -8 -630 -51 -507 -7
20 -25 70 -41 112 -15 42 -32 89 -37 104 -6 15 -17 46 -25 68 -8 22 -15 46
-15 52 0 7 -5 21 -11 33 -6 11 -13 31 -16 44 -3 12 -12 41 -21 63 -8 22 -20
60 -27 84 -21 76 -70 234 -85 276 -8 22 -17 48 -20 57 -5 18 -28 42 -28 30 0
-4 3 -11 7 -15 4 -5 24 -60 45 -124 21 -64 43 -128 49 -142 6 -15 11 -33 11
-41 0 -15 114 -358 164 -493 16 -44 34 -98 41 -119 7 -21 22 -48 33 -60 31
-31 32 -20 33 281 2 591 15 904 39 925 41 37 192 12 218 -37 19 -35 24 -269
25 -1154 1 -876 -1 -895 -99 -865 -14 4 -46 10 -70 13 -64 9 -152 105 -152
167 0 3 -16 39 -36 80 -19 41 -40 88 -47 106 -6 17 -28 71 -49 119 -20 48 -52
122 -70 164 -17 42 -35 83 -39 91 -5 8 -22 54 -40 104 -17 49 -37 104 -44 122
-40 112 -55 72 -47 -128 14 -355 9 -845 -8 -881 -26 -52 -51 -53 -152 -4 -77
38 -101 58 -90 78 2 3 1 46 -3 94 -14 173 -3 1498 14 1730 8 109 15 113 141
73 55 -17 86 -32 102 -48 13 -14 24 -19 24 -14 -1 14 -54 55 -72 55 -7 0 -16
3 -20 7 -5 4 -36 15 -71 25 -80 22 -101 12 -111 -53 -17 -120 -31 -1621 -17
-1815 7 -96 7 -96 97 -141 121 -61 158 -53 177 38 11 54 13 668 2 779 -23 229
-1 290 47 135 14 -44 37 -106 52 -138 16 -32 28 -62 28 -66 0 -5 11 -31 25
-59 13 -28 32 -72 43 -99 10 -27 31 -77 47 -112 16 -35 29 -67 29 -71 0 -5 11
-32 25 -61 14 -29 34 -73 45 -97 74 -166 82 -175 166 -190 139 -25 138 -25
166 38 18 40 23 1886 5 1953 -20 76 -170 124 -244 78z"/>
<path d="M1723 3225 c-67 -49 -150 -163 -167 -231 -3 -12 -10 -27 -15 -34 -40
-48 -58 -350 -26 -436 76 -204 191 -338 283 -330 40 3 38 -24 38 537 0 478 0
478 -22 498 -30 25 -53 24 -91 -4z m86 -4 c31 -23 26 -1021 -5 -1021 -95 0
-222 151 -277 328 -36 114 -21 336 29 444 6 13 17 38 24 56 55 128 179 232
229 193z"/>
<path d="M4010 3229 c-65 -22 -122 -75 -184 -177 -10 -17 -52 -103 -69 -144
-22 -51 -61 -180 -81 -268 -11 -51 -26 -115 -32 -144 -7 -29 -12 -66 -12 -84
0 -18 -6 -55 -12 -84 -33 -145 -33 -631 0 -752 14 -51 13 -27 -4 100 -11 84
-11 409 -1 521 11 109 30 252 40 295 4 18 16 70 25 116 60 282 167 508 277
581 109 72 207 47 377 -96 125 -104 149 -172 150 -415 0 -181 8 -194 17 -28
12 211 -40 357 -159 452 -32 25 -62 50 -66 55 -45 53 -197 94 -266 72z"/>
<path d="M4817 3226 c-32 -26 -40 -123 -49 -552 -4 -214 -12 -530 -16 -702
-14 -483 -2 -738 34 -780 10 -11 19 -21 19 -23 13 -27 147 -54 179 -36 45 27
43 -2 49 795 5 578 9 765 19 856 37 346 13 424 -136 444 -22 3 -49 7 -61 9
-13 2 -27 -2 -38 -11z m163 -31 c82 -38 87 -65 64 -367 -17 -223 -21 -398 -27
-1058 -5 -594 -5 -594 -26 -615 -55 -55 -206 11 -218 96 -20 142 -3 1517 24
1872 8 110 61 131 183 72z"/>
<path d="M6243 3223 c-16 -8 -17 -16 -22 -182 -2 -95 -9 -214 -15 -265 -14
-136 -14 -1460 1 -1517 17 -68 43 -86 111 -79 48 5 63 3 107 -14 141 -53 166
-56 233 -26 119 52 217 239 246 470 5 36 12 86 16 110 9 58 9 321 0 372 -5 22
-12 65 -17 96 -35 218 -307 360 -386 201 -27 -55 -59 -84 -65 -59 -3 12 -3 25
0 31 20 31 45 739 28 793 -18 60 -170 104 -237 69z m182 -23 c48 -25 51 -43
48 -244 -3 -194 -12 -382 -25 -528 -14 -156 18 -175 77 -44 37 82 151 76 273
-14 56 -42 76 -90 107 -254 24 -125 5 -475 -34 -620 -19 -73 -60 -183 -74
-200 -6 -7 -20 -29 -32 -49 -68 -121 -209 -140 -386 -53 -10 4 -28 6 -40 3
-62 -15 -68 -15 -88 4 -47 44 -47 47 -46 731 0 478 3 678 14 854 7 127 13 274
13 327 0 91 1 96 18 103 27 12 141 1 175 -16z"/>
<path d="M6601 2176 c-18 -25 -68 -141 -85 -200 -56 -193 -69 -278 -71 -464
-1 -131 7 -152 59 -152 45 0 105 94 104 163 0 9 -9 -8 -20 -39 -33 -95 -49
-116 -86 -116 -33 0 -46 26 -46 96 0 108 16 315 29 364 29 115 56 196 88 265
10 23 19 45 19 48 0 17 38 53 51 49 26 -11 15 -344 -20 -550 -16 -101 -17
-104 -4 -71 11 29 23 104 37 243 13 128 10 377 -5 383 -22 9 -32 5 -50 -19z"/>
<path d="M1434 3196 c-23 -15 -45 -28 -50 -28 -4 0 -21 -12 -38 -26 -16 -15
-57 -47 -90 -72 -184 -141 -280 -277 -337 -479 -105 -377 -87 -489 109 -672
151 -140 223 -138 472 18 18 11 52 29 76 41 24 12 49 25 56 29 7 4 44 23 84
43 101 50 101 51 -32 139 -120 79 -206 172 -234 251 -9 24 -24 64 -34 88 -28
67 -32 253 -9 337 9 33 17 66 17 74 0 8 5 26 11 40 7 14 16 38 20 53 4 15 19
58 32 94 37 101 22 120 -53 70z m57 5 c3 -4 -4 -33 -15 -66 -51 -149 -59 -175
-76 -243 -29 -113 -27 -282 3 -364 13 -33 28 -76 35 -96 28 -81 149 -202 289
-289 69 -43 71 -41 -171 -163 -31 -15 -69 -35 -84 -43 -188 -105 -234 -124
-271 -113 -113 32 -266 183 -316 311 -24 62 -25 145 -2 254 75 359 152 491
397 683 42 33 77 63 79 66 1 4 25 17 53 29 27 13 52 27 55 32 7 11 18 12 24 2z"/>
<path d="M1908 3198 c-2 -5 -6 -138 -8 -294 -2 -156 -5 -295 -6 -308 -8 -128
4 -1483 13 -1496 14 -19 66 2 77 32 11 29 19 2013 8 2038 -14 30 -76 51 -84
28z m64 -19 c25 -25 14 -2040 -12 -2059 -25 -20 -46 -20 -51 -2 -6 22 0 2055
6 2065 9 13 42 11 57 -4z"/>
<path d="M2076 3143 c-7 -21 -8 -206 -1 -228 5 -16 10 -17 127 -17 92 1 114 2
90 8 -18 4 -69 5 -114 3 -101 -5 -98 -8 -98 119 0 88 7 124 24 124 22 0 260
-127 320 -170 92 -67 150 -136 102 -123 -10 3 -29 8 -42 10 -13 3 -39 10 -58
16 -19 6 -50 11 -68 10 -34 -1 -34 -1 2 -7 20 -4 46 -10 59 -15 12 -5 32 -9
45 -9 13 0 36 -6 51 -13 29 -14 53 -11 53 7 0 21 -142 144 -192 168 -7 4 -32
17 -56 31 -183 102 -234 120 -244 86z"/>
<path d="M1011 3101 c-40 -14 -81 -29 -92 -34 -10 -5 -37 -17 -59 -27 -71 -30
-156 -74 -182 -93 -228 -168 -343 -286 -418 -426 -10 -18 -22 -37 -26 -43 -66
-82 -149 -308 -190 -514 -6 -31 -15 -73 -19 -93 -22 -98 -18 -467 7 -539 4
-13 15 -54 24 -91 26 -104 86 -209 120 -209 22 0 23 40 24 615 0 292 2 534 4
537 22 36 286 51 363 21 19 -7 43 -13 52 -12 10 0 -2 7 -27 17 -103 38 -370
25 -397 -20 -3 -5 -7 -263 -9 -573 -3 -612 -1 -577 -29 -558 -93 61 -172 554
-125 781 4 20 11 62 16 95 4 32 13 75 19 96 7 20 24 78 38 129 38 137 138 336
224 446 22 27 39 52 39 55 0 13 131 136 200 189 42 31 89 66 104 78 27 21 137
80 188 100 24 10 70 29 144 59 59 23 100 30 100 15 0 -12 -50 -82 -62 -87 -27
-12 -183 -242 -214 -315 -34 -82 -82 -249 -73 -257 5 -6 29 74 29 96 0 21 39
125 70 185 46 90 57 111 64 115 4 3 17 21 28 41 20 33 42 61 100 124 114 123
106 145 -35 97z"/>
<path d="M12403 3074 c-94 -18 -146 -195 -97 -330 24 -67 87 -112 155 -112
157 0 177 338 24 427 -35 20 -46 23 -82 15z m84 -30 c133 -83 115 -396 -22
-396 -108 0 -159 65 -162 205 -4 166 83 256 184 191z"/>
<path d="M10368 3001 c-20 -13 -44 -30 -53 -39 -25 -25 -155 -110 -187 -122
-102 -41 -112 -113 -26 -193 40 -37 79 -40 121 -9 12 9 30 19 41 22 10 3 24
11 30 17 6 6 17 11 23 11 7 0 22 7 33 16 11 9 26 16 33 16 8 0 18 4 23 9 5 5
38 19 73 31 111 36 131 109 53 188 -82 82 -107 90 -164 53z m85 4 c29 -21 91
-82 91 -91 0 -4 5 -13 12 -18 43 -36 1 -100 -84 -128 -33 -11 -83 -32 -112
-47 -225 -116 -205 -112 -261 -53 -70 73 -63 114 29 160 64 31 117 65 178 114
85 69 118 83 147 63z"/>
<path d="M11708 2935 c-36 -20 -36 -21 -36 -296 0 -301 7 -277 -79 -284 -74
-6 -80 -9 -93 -41 -34 -80 28 -218 96 -218 69 0 67 7 64 -328 -4 -477 5 -562
65 -591 13 -7 29 -15 37 -18 14 -7 65 -21 102 -28 57 -11 80 94 67 301 -2 45
-2 216 1 378 7 342 1 321 97 320 80 0 89 16 86 139 -3 120 -11 131 -90 131
-90 0 -90 2 -60 373 10 115 -154 218 -257 162z m142 -16 c84 -22 104 -65 98
-216 -3 -77 -8 -158 -12 -181 -18 -102 -3 -127 80 -133 81 -7 83 -10 87 -118
3 -115 -3 -127 -72 -127 -113 0 -108 23 -110 -484 -2 -557 2 -532 -86 -511
-164 38 -158 19 -160 503 -1 471 1 460 -85 460 -45 0 -86 74 -86 155 0 64 10
72 107 80 70 6 73 11 73 127 3 513 -6 489 166 445z"/>
<path d="M4070 2874 c-41 -47 -104 -374 -143 -746 -11 -107 -5 -503 9 -548 5
-18 12 -58 16 -90 30 -264 268 -38 300 286 20 195 149 273 234 141 28 -43 33
-268 8 -350 -17 -55 -18 -88 -2 -43 57 153 40 381 -31 440 -94 77 -221 -33
-221 -190 0 -23 -8 -66 -17 -97 -90 -302 -238 -395 -264 -168 -3 32 -11 74
-16 92 -28 93 -10 587 29 803 6 35 14 84 17 108 2 24 10 59 16 78 6 19 11 51
11 71 0 20 5 46 12 59 6 12 14 38 17 57 23 153 88 109 107 -72 5 -42 14 -94
20 -116 7 -22 12 -48 12 -58 0 -46 60 -132 92 -130 11 0 12 2 4 5 -57 21 -97
124 -116 306 -14 131 -57 204 -94 162z"/>
<path d="M2093 2811 c-12 -13 -2 -35 44 -91 45 -55 71 -91 171 -230 20 -28 36
-55 36 -61 0 -5 6 -18 14 -29 21 -30 25 -198 6 -275 -20 -82 -61 -184 -129
-319 -32 -65 -59 -122 -59 -127 0 -5 -8 -19 -17 -32 -21 -30 -30 -87 -14 -87
10 0 132 59 246 119 16 9 34 18 41 20 7 3 26 14 44 24 18 11 66 37 108 59 42
22 105 55 140 74 35 19 75 40 88 46 13 7 35 20 48 30 13 9 40 25 60 35 64 32
81 83 56 170 -4 15 -8 38 -8 53 0 193 -227 461 -471 554 -126 48 -380 90 -404
67z m163 -22 c415 -61 683 -317 709 -679 6 -94 2 -104 -71 -144 -250 -140
-284 -158 -344 -188 -29 -14 -55 -30 -58 -34 -2 -4 -18 -11 -34 -17 -17 -5
-44 -19 -62 -30 -18 -11 -77 -41 -132 -67 -127 -58 -127 -57 -41 117 148 300
174 384 168 543 -5 112 -107 291 -272 475 -35 38 -2 44 137 24z"/>
<path d="M2085 2515 c-7 -16 -6 -640 0 -656 6 -15 30 -14 44 3 16 19 79 143
79 156 0 5 5 20 12 33 24 47 39 170 28 232 -23 125 -140 291 -163 232z m60
-39 c124 -143 126 -334 6 -556 -50 -92 -51 -90 -53 260 -3 371 -5 356 47 296z"/>
<path d="M13832 2522 c-26 -9 -81 -61 -96 -90 -57 -112 -138 -425 -135 -524 1
-22 3 -31 4 -20 66 435 152 637 265 622 17 -3 55 -12 86 -22 82 -25 102 -28
64 -9 -18 9 -40 17 -49 17 -9 0 -29 5 -44 11 -34 14 -79 21 -95 15z"/>
<path d="M11112 2505 c-22 -18 -23 -36 -24 -369 0 -77 -5 -194 -12 -260 -6
-66 -13 -148 -16 -183 -9 -116 -105 -290 -127 -232 -8 20 -5 508 3 543 40 173
22 376 -36 411 -113 69 -212 37 -212 -69 0 -25 -7 -107 -16 -182 -18 -155 -23
-605 -7 -664 5 -18 12 -50 17 -72 20 -101 89 -207 145 -225 9 -3 26 -12 37
-20 63 -46 128 -36 193 30 42 42 50 43 68 7 49 -104 185 -145 212 -63 22 65
24 1238 3 1270 -43 66 -183 113 -228 78z m148 -29 c92 -44 85 17 80 -680 -5
-661 -5 -657 -33 -670 -50 -22 -161 48 -176 110 -10 40 -22 43 -51 12 -81 -87
-125 -98 -212 -55 -153 76 -194 183 -201 523 -4 148 -2 237 8 344 7 79 15 182
17 228 8 132 28 159 111 148 141 -18 165 -96 125 -404 -11 -80 -15 -518 -6
-562 16 -75 82 -6 133 137 23 66 32 192 42 549 9 343 9 343 50 350 27 5 53 -2
113 -30z"/>
<path d="M13012 2499 c-18 -19 -84 -125 -84 -134 0 -2 -12 -31 -27 -63 -46
-100 -66 -161 -85 -262 -5 -24 -15 -71 -22 -104 -21 -91 -20 -432 1 -500 25
-81 63 -129 157 -199 193 -142 296 -128 421 56 19 28 59 108 59 119 0 3 5 17
11 31 60 137 55 187 -28 267 -48 48 -71 57 -101 41 -20 -11 -66 -98 -66 -126
0 -26 -72 -152 -106 -187 -8 -8 -14 -17 -14 -20 0 -18 -49 -36 -63 -23 -15 16
-16 370 0 411 4 12 13 59 19 106 6 46 15 98 19 116 5 18 14 59 22 92 27 124
64 124 54 -1 -11 -127 24 -200 105 -223 104 -29 148 31 150 203 3 257 -3 275
-98 327 -24 13 -48 27 -52 30 -5 4 -23 11 -40 15 -68 17 -115 32 -131 40 -30
17 -80 11 -101 -12z m102 2 c14 -6 48 -17 74 -25 121 -33 222 -102 232 -158
12 -61 1 -337 -14 -364 -30 -54 -79 -66 -144 -35 -59 29 -65 43 -70 176 -4
127 -15 154 -47 116 -12 -15 -19 -40 -53 -183 -65 -277 -72 -652 -11 -652 37
0 175 187 175 237 0 67 66 147 104 127 106 -55 128 -133 79 -278 -97 -287
-251 -377 -431 -250 -81 57 -91 64 -120 92 -114 108 -138 416 -59 752 7 29 16
67 19 85 4 18 12 45 19 60 6 15 17 40 23 55 93 220 146 278 224 245z"/>
<path d="M5720 2491 c-14 -19 -16 -31 -15 -94 3 -139 -10 -641 -17 -661 -4
-11 -11 -45 -16 -76 -16 -101 -67 -204 -100 -204 -31 0 -41 193 -22 396 14
151 28 464 22 492 -19 87 -202 137 -247 68 -36 -55 -70 -732 -45 -888 24 -149
57 -235 106 -281 36 -33 95 -75 107 -75 5 0 19 -5 32 -12 47 -24 78 -14 147
47 60 54 61 54 72 13 26 -95 174 -146 212 -73 26 51 18 1270 -9 1299 -61 64
-192 92 -227 49z m112 1 c42 -9 83 -32 108 -61 28 -33 30 -1247 2 -1289 -38
-58 -157 -9 -185 76 -17 54 -25 56 -61 17 -71 -74 -111 -88 -183 -62 -121 42
-192 146 -218 319 -23 153 2 819 34 901 31 81 216 33 234 -61 4 -24 2 -62 -24
-460 -21 -329 -6 -465 49 -426 14 10 60 76 60 86 0 5 5 20 11 33 36 72 51 242
56 627 4 310 7 323 77 308 7 -2 25 -5 40 -8z"/>
<path d="M4468 2478 c-10 -38 -53 -68 -106 -74 -71 -8 -77 -12 -10 -8 76 5
136 47 126 89 -3 12 -5 11 -10 -7z"/>
<path d="M7281 2459 c-34 -38 -80 -120 -101 -180 -36 -101 -51 -154 -67 -227
-10 -44 -23 -106 -30 -137 -20 -88 -20 -376 0 -435 42 -125 73 -179 136 -243
93 -95 230 -142 303 -104 31 16 110 77 110 84 0 3 14 23 31 45 115 146 155
270 117 363 -9 24 -64 55 -96 57 -34 1 -53 -16 -105 -97 -15 -23 -32 -48 -37
-54 -143 -172 -222 -166 -222 17 0 96 45 148 127 148 17 0 48 5 70 12 21 7 64
14 95 17 31 2 63 9 72 14 9 6 26 13 38 16 36 9 41 30 42 165 0 119 -15 291
-28 308 -3 4 -9 20 -12 35 -30 140 -167 233 -344 233 -67 0 -67 0 -99 -37z
m220 8 c194 -65 251 -188 251 -546 0 -147 -27 -185 -133 -185 -36 0 -226 -39
-250 -51 -45 -24 -53 -41 -56 -122 -5 -143 29 -190 112 -156 31 12 142 131
166 176 49 92 97 111 152 61 79 -72 52 -179 -100 -392 -87 -122 -180 -147
-308 -85 -118 56 -185 144 -241 317 -34 104 -16 434 31 566 6 17 11 41 11 52
0 46 94 275 139 340 37 52 119 61 226 25z"/>
<path d="M7442 2257 c-10 -6 -26 -57 -63 -201 -32 -128 -22 -146 68 -115 83
27 91 48 73 184 -15 111 -42 156 -78 132z m48 -38 c12 -21 15 -45 16 -132 2
-107 2 -107 -36 -125 -85 -41 -114 -26 -91 48 6 19 15 54 20 78 6 24 13 53 17
64 3 11 11 37 16 58 12 46 34 50 58 9z"/>
<path d="M10054 2441 c-63 -67 -108 -132 -136 -197 -86 -197 -100 -273 -56
-313 83 -78 144 -65 197 42 13 26 30 54 38 63 7 9 30 47 50 84 61 116 73 105
75 -78 2 -162 0 -170 -50 -170 -37 0 -144 -44 -163 -67 -6 -7 -16 -13 -22 -13
-15 0 -106 -86 -126 -120 -48 -77 -68 -224 -39 -276 5 -9 16 -32 24 -52 59
-141 195 -207 320 -155 50 21 84 18 115 -12 52 -49 143 -59 176 -19 21 24 28
960 9 1058 -18 88 -44 131 -105 168 -227 140 -228 140 -307 57z m175 9 c35
-21 77 -45 93 -53 143 -74 153 -129 142 -774 -5 -292 -11 -453 -16 -459 -28
-33 -114 -22 -163 21 -41 36 -58 38 -120 15 -102 -38 -185 -18 -250 62 -150
183 -116 396 85 525 87 56 129 73 196 79 15 1 27 8 32 19 13 26 10 294 -3 310
-18 21 -52 2 -72 -41 -10 -21 -36 -65 -56 -98 -21 -33 -49 -79 -61 -103 -39
-71 -77 -79 -149 -28 -50 35 -54 78 -15 179 10 24 22 57 28 72 35 96 84 175
154 251 68 74 86 76 175 23z"/>
<path d="M10152 1617 c-52 -13 -152 -106 -152 -141 0 -48 51 -66 138 -48 32 7
61 12 64 12 12 0 38 67 38 97 0 72 -26 96 -88 80z m67 -22 c8 -20 6 -87 -4
-114 -21 -60 -199 -68 -199 -10 0 72 181 183 203 124z"/>
<path d="M12329 2473 c-36 -38 -37 -63 -37 -637 0 -610 1 -622 74 -672 37 -25
140 -29 174 -7 28 18 28 15 32 519 3 251 7 496 10 544 10 148 6 182 -27 215
-61 63 -184 83 -226 38z m181 -12 c65 -34 69 -53 59 -276 -5 -111 -9 -377 -9
-592 0 -461 4 -441 -93 -441 -82 0 -124 27 -143 91 -27 88 -31 1126 -5 1193
19 48 122 61 191 25z"/>
<path d="M14092 2444 c46 -25 115 -82 125 -104 4 -9 10 -21 15 -28 171 -266
86 -982 -135 -1129 -85 -56 -111 -50 -337 81 -118 68 -151 157 -160 424 -6
172 -6 172 -4 -8 3 -280 37 -362 185 -440 26 -14 58 -32 71 -40 170 -111 276
-66 387 164 135 279 129 749 -13 980 -28 45 -126 120 -158 120 -8 0 3 -9 24
-20z"/>
<path d="M740 2363 c-15 -201 -12 -195 -84 -175 -20 5 -20 5 0 -6 74 -42 84
-29 91 122 6 133 2 172 -7 59z"/>
<path d="M13970 2227 c-20 -8 -50 -97 -86 -247 -56 -233 -39 -570 28 -578 38
-5 104 91 104 151 0 9 5 26 11 37 39 78 54 351 27 502 -22 118 -43 152 -84
135z m45 -26 c10 -13 17 -33 17 -44 0 -12 6 -56 14 -99 16 -92 18 -222 3 -306
-6 -33 -13 -78 -17 -100 -25 -144 -84 -262 -120 -240 -48 30 -64 380 -25 540
61 250 89 305 128 249z"/>
<path d="M380 2129 c-73 -18 -69 11 -66 -433 2 -372 2 -372 25 -375 12 -1 28
3 36 9 13 12 120 49 166 58 27 5 188 -16 210 -27 7 -4 29 -10 49 -12 20 -3 49
-11 64 -16 15 -6 50 -17 76 -25 26 -8 96 -34 155 -58 143 -56 245 -55 357 4
52 27 52 27 52 258 1 254 5 245 -106 207 -133 -46 -344 -19 -398 51 -134 174
-329 313 -480 342 -20 4 -49 11 -64 16 -31 9 -41 9 -76 1z m104 -22 c166 -27
350 -153 510 -349 46 -56 95 -72 222 -73 97 -1 203 13 213 28 10 17 57 7 62
-13 18 -70 4 -394 -18 -414 -76 -69 -235 -81 -365 -27 -89 37 -253 93 -296
102 -18 3 -80 16 -138 28 -118 24 -141 21 -281 -34 -73 -30 -69 -55 -66 363 2
404 -1 384 54 394 31 6 39 6 103 -5z"/>
<path d="M3066 1901 c-37 -20 -82 -45 -102 -56 -19 -12 -41 -21 -48 -21 -7 0
-15 -5 -17 -12 -3 -7 -9 -12 -14 -12 -5 0 -42 -17 -83 -38 -40 -21 -139 -72
-220 -112 -379 -194 -361 -173 -278 -332 9 -16 16 -34 16 -40 0 -33 154 -252
208 -295 19 -15 53 -44 75 -64 45 -40 109 -80 194 -119 84 -39 89 -41 111 -31
19 9 25 17 94 123 42 65 105 202 113 248 4 17 11 41 16 52 6 11 16 49 23 84 8
35 20 91 27 124 16 74 25 364 13 417 -33 136 -31 135 -128 84z m97 5 c76 -270
-24 -825 -187 -1032 -9 -11 -16 -24 -16 -29 0 -18 -55 -69 -74 -69 -45 0 -218
100 -306 177 -125 110 -186 195 -269 378 -54 118 -56 132 -25 150 43 25 145
78 318 167 97 50 182 95 189 101 7 6 16 11 20 11 4 0 27 11 51 24 24 13 53 27
64 32 11 4 31 14 44 22 135 77 183 94 191 68z"/>
<path d="M1814 1919 c-8 -4 -24 -17 -36 -28 -12 -12 -35 -29 -50 -39 -59 -38
-104 -90 -104 -122 -2 -539 -1 -529 -65 -546 -16 -5 -40 -14 -52 -20 -13 -7
-27 -12 -33 -12 -5 0 -21 -5 -36 -11 -14 -7 -38 -16 -52 -21 -71 -27 -30 -112
86 -181 97 -57 274 -39 352 36 38 37 40 61 40 563 0 400 -1 410 -50 381z m31
-17 c9 -14 4 -866 -5 -889 -10 -28 -52 -57 -112 -78 -121 -43 -251 -12 -334
79 -60 66 -40 92 106 138 143 44 132 17 132 326 0 307 -6 281 88 354 20 15 50
40 66 54 32 28 49 32 59 16z"/>
<path d="M3632 1506 c4 -12 14 -44 22 -70 43 -135 115 -217 248 -282 184 -90
370 -39 481 131 53 81 66 105 83 154 20 57 12 62 -9 6 -94 -250 -287 -374
-483 -308 -171 57 -269 160 -322 341 -8 28 -17 50 -21 50 -3 0 -3 -10 1 -22z"/>
<path d="M2140 1190 c-44 -73 -173 -209 -220 -233 -15 -7 -39 -21 -52 -29 -73
-47 -184 -84 -278 -93 -118 -11 -302 86 -350 184 -42 89 -62 93 -153 32 -69
-47 -116 -76 -151 -91 -11 -5 -31 -15 -44 -21 -32 -14 -136 -50 -176 -60 -18
-5 -70 -11 -116 -14 -98 -6 -104 -18 -72 -161 59 -269 77 -309 140 -326 141
-38 312 18 446 147 51 49 93 75 120 75 4 0 39 -30 77 -66 206 -198 572 -180
776 37 33 35 56 19 134 -93 99 -144 152 -128 355 106 24 28 56 64 70 79 54 59
50 66 -102 189 -154 125 -282 268 -340 379 -17 34 -19 33 -64 -41z m63 12 c44
-84 243 -298 353 -377 65 -47 108 -89 108 -106 0 -35 -230 -275 -299 -311 -43
-23 -58 -16 -109 50 -125 159 -134 167 -168 130 -10 -10 -33 -29 -51 -42 -18
-12 -38 -27 -44 -32 -6 -6 -40 -24 -76 -42 -224 -108 -440 -82 -600 73 -90 87
-110 87 -201 0 -146 -139 -315 -195 -457 -152 -32 10 -43 28 -66 107 -10 35
-22 75 -26 90 -4 14 -11 44 -15 68 -4 23 -13 68 -20 101 -19 88 -11 97 86 97
67 0 140 16 221 50 42 17 84 33 93 36 9 2 21 9 28 14 7 5 28 18 48 28 20 10
61 36 91 57 67 49 81 49 113 -5 173 -285 539 -280 828 11 46 47 96 106 110
131 30 52 37 55 53 24z"/>
<path d="M541 1216 c-90 -24 -177 -98 -205 -173 -5 -11 -17 -32 -28 -47 -64
-83 -73 -188 -20 -236 2 -2 16 -22 31 -44 72 -108 97 -92 97 63 0 141 -7 133
120 133 65 0 114 4 139 12 22 7 54 12 71 12 17 0 41 5 53 11 12 7 36 14 53 17
18 3 37 11 44 16 7 6 25 16 40 22 40 17 98 72 95 90 -3 16 -5 18 -90 56 -102
47 -142 60 -201 68 -109 16 -142 16 -199 0z m178 -8 c57 -8 166 -42 225 -72
15 -8 38 -18 50 -23 42 -17 17 -60 -58 -97 -20 -10 -41 -22 -47 -27 -6 -5 -30
-13 -52 -18 -23 -5 -55 -13 -73 -18 -76 -19 -150 -27 -242 -29 -124 -1 -117 7
-118 -135 0 -149 -13 -158 -84 -60 -84 115 -81 145 44 343 74 117 181 158 355
136z"/>
<path d="M12021 796 c-39 -20 -72 -78 -131 -225 -44 -112 -66 -118 -91 -26
-15 56 -30 98 -45 124 -6 10 -10 23 -10 29 0 57 -246 90 -279 37 -25 -40 -33
-568 -9 -605 19 -29 122 -50 165 -33 21 7 21 7 18 185 -3 163 -2 178 11 180 9
2 15 -4 18 -19 3 -13 12 -39 20 -59 8 -20 23 -58 33 -84 49 -130 166 -137 214
-12 14 36 29 71 33 79 4 7 14 33 23 57 39 109 35 102 56 89 9 -6 10 -25 6 -96
-3 -49 -7 -128 -10 -176 -6 -99 0 -116 41 -134 39 -16 145 -15 151 2 10 26 6
641 -5 649 -41 34 -171 58 -209 38z m88 -8 c133 -27 123 2 123 -364 0 -343 4
-324 -73 -318 -113 9 -113 10 -99 231 12 184 9 211 -19 205 -17 -3 -30 -30
-89 -182 -57 -146 -58 -146 -113 -145 -57 1 -77 18 -105 86 -13 30 -30 69 -38
87 -8 18 -17 45 -20 61 -5 34 -24 54 -37 41 -16 -16 -21 -76 -16 -173 13 -235
13 -235 -112 -204 -58 14 -68 81 -55 376 12 282 4 267 148 255 93 -7 132 -22
132 -50 0 -4 5 -19 11 -33 7 -14 22 -56 33 -93 45 -141 65 -140 123 7 86 213
106 235 206 213z"/>
<path d="M13883 800 c-20 -8 -35 -30 -63 -96 -12 -29 -24 -58 -28 -65 -3 -6
-16 -37 -28 -68 -11 -30 -27 -69 -36 -87 -24 -52 -56 -129 -71 -174 -30 -84
-35 -98 -45 -122 -35 -81 -20 -121 48 -132 82 -13 114 17 155 149 15 49 31 56
140 62 113 6 129 2 137 -35 13 -60 68 -132 104 -136 139 -15 142 -7 72 228
-15 53 -32 110 -36 128 -5 18 -14 48 -21 68 -7 20 -15 52 -19 72 -6 30 -51
166 -58 173 -15 15 -87 35 -125 34 -45 -1 -45 -1 -1 -8 132 -21 121 -3 216
-351 12 -46 32 -116 44 -156 54 -182 55 -180 -25 -180 -74 0 -147 74 -147 147
0 28 -35 34 -159 25 -93 -6 -129 -22 -129 -55 0 -19 -56 -137 -69 -147 -18
-13 -89 -13 -115 1 -25 13 -24 40 5 125 12 33 28 79 36 102 14 41 40 104 71
174 8 18 24 57 36 88 12 31 25 59 29 64 4 4 7 13 7 20 0 17 54 125 69 137 7 6
30 13 50 16 37 5 37 5 5 5 -18 1 -39 -2 -49 -6z"/>
<path d="M4707 792 c-21 -8 -49 -46 -74 -100 -10 -22 -24 -50 -30 -63 -6 -12
-11 -29 -11 -37 0 -8 -5 -18 -11 -24 -7 -5 -14 -19 -17 -32 -3 -13 -23 -63
-44 -112 -22 -48 -43 -100 -47 -114 -4 -14 -17 -51 -29 -82 -54 -143 -47 -181
32 -192 43 -7 89 10 97 34 3 8 17 40 32 72 15 32 27 63 27 69 0 22 27 32 102
39 147 14 139 16 161 -30 11 -22 25 -49 31 -60 6 -11 13 -26 15 -33 11 -32 68
-56 123 -51 83 9 84 13 39 152 -13 40 -29 94 -36 120 -87 340 -117 416 -166
423 -41 6 -144 22 -161 25 -9 2 -24 0 -33 -4z m143 -23 c30 -4 63 -13 73 -19
22 -15 79 -183 122 -362 7 -31 27 -99 44 -151 47 -145 41 -157 -74 -150 -27 2
-64 44 -95 110 -39 82 -35 80 -159 67 -95 -10 -137 -23 -137 -42 0 -25 -67
-157 -84 -166 -47 -25 -124 3 -124 45 0 25 86 261 138 379 9 20 20 47 26 60 6
13 18 40 27 61 9 20 17 40 17 44 0 19 51 108 71 124 22 18 24 18 155 0z"/>
<path d="M4770 546 c-20 -28 -66 -132 -66 -149 0 -24 56 -33 138 -22 17 3 22
34 9 63 -7 16 -18 48 -25 70 -19 65 -32 73 -56 38z m53 -58 c37 -102 34 -108
-55 -102 -57 3 -59 15 -20 98 36 76 49 77 75 4z"/>
<path d="M7400 782 c-27 -19 -71 -87 -71 -113 -1 -8 -6 -24 -12 -36 -6 -11
-26 -57 -45 -101 -18 -44 -38 -91 -43 -104 -6 -13 -18 -41 -28 -62 -9 -21 -17
-42 -17 -47 0 -5 -5 -20 -12 -34 -37 -82 -64 -181 -57 -210 14 -52 173 -46
173 8 0 9 31 79 58 133 13 25 61 39 158 45 87 6 90 3 117 -71 33 -96 90 -123
201 -97 25 6 13 94 -23 175 -4 9 -12 37 -18 62 -7 25 -15 50 -18 55 -3 5 -10
33 -15 62 -11 57 -55 204 -74 249 -28 65 -30 68 -58 73 -184 36 -182 36 -216
13z m164 -13 c78 -10 92 -27 124 -153 5 -20 20 -66 33 -104 12 -37 23 -76 23
-85 0 -10 5 -34 11 -53 89 -274 89 -273 4 -276 -69 -3 -101 21 -126 91 -26 75
-36 83 -100 83 -71 0 -164 -13 -178 -25 -13 -10 -70 -129 -78 -161 -9 -38
-114 -51 -141 -18 -17 20 1 106 40 200 4 9 17 41 28 72 12 31 26 67 32 80 6
13 26 60 44 104 18 44 38 90 44 101 7 12 12 26 12 32 0 19 40 90 62 110 23 20
26 20 166 2z"/>
<path d="M7468 557 c-7 -16 -12 -31 -12 -34 0 -3 -13 -31 -28 -61 -42 -81 -39
-90 36 -90 118 0 121 5 81 121 -34 101 -55 118 -77 64z m50 -19 c57 -152 58
-149 -43 -159 -71 -6 -75 -1 -44 62 14 27 25 53 25 58 0 43 49 74 62 39z"/>
<path d="M8034 790 c-44 -11 -54 -97 -53 -448 1 -225 5 -246 54 -246 14 0 13
3 -9 16 -37 22 -37 28 -32 348 6 348 4 343 122 312 24 -6 48 -13 52 -16 5 -3
8 -128 8 -324 0 -354 -1 -362 -54 -349 -59 15 -64 15 -39 2 36 -21 74 -17 91
8 15 24 23 616 9 657 -6 16 -26 25 -99 42 -13 3 -36 2 -50 -2z"/>
<path d="M8607 794 c-22 -10 -79 -102 -79 -127 0 -8 9 2 19 22 43 88 56 98
124 92 102 -8 153 -17 164 -29 21 -25 88 -221 105 -312 6 -31 42 -154 73 -254
27 -83 23 -89 -52 -91 -48 -2 -49 -2 -13 -5 97 -7 113 22 67 125 -8 19 -15 40
-15 47 0 7 -11 47 -24 90 -13 43 -28 94 -32 113 -4 19 -13 53 -20 75 -7 22
-18 60 -25 84 -32 110 -48 140 -76 145 -134 28 -194 34 -216 25z"/>
<path d="M9628 795 c-53 -11 -52 1 -52 -339 -1 -369 -9 -342 96 -360 20 -4 51
-11 69 -17 70 -21 257 64 351 159 131 132 147 314 37 421 -99 97 -354 166
-501 136z m243 -24 c126 -21 253 -101 298 -189 132 -255 -318 -613 -567 -450
-28 19 -29 622 0 637 42 23 141 24 269 2z"/>
<path d="M9790 654 c-24 -18 -42 -380 -20 -424 18 -38 143 40 163 101 3 9 12
26 20 37 57 77 37 226 -36 268 -41 23 -107 33 -127 18z m130 -32 c27 -20 39
-46 60 -125 18 -65 -125 -280 -181 -272 -20 3 -29 309 -12 394 8 40 83 41 133
3z"/>
<path d="M12490 792 c-34 -14 -40 -47 -45 -252 -11 -414 -6 -433 109 -452 100
-17 94 -40 94 342 0 179 -3 330 -6 336 -17 26 -112 42 -152 26z m111 -17 c40
-14 38 -1 38 -341 1 -363 4 -338 -51 -338 -138 0 -148 41 -127 536 7 156 31
180 140 143z"/>
<path d="M3747 781 c-19 -5 -37 -12 -40 -16 -10 -9 -11 -595 -2 -626 8 -27 27
-38 83 -47 17 -3 41 -10 53 -17 90 -46 335 76 430 214 97 141 72 331 -54 400
-16 8 -40 22 -53 30 -104 61 -310 92 -417 62z m183 -6 c461 -47 536 -443 122
-649 -95 -48 -141 -56 -211 -38 -33 9 -67 16 -75 16 -52 0 -54 12 -54 343 0
234 2 306 10 311 38 24 95 29 208 17z"/>
<path d="M3904 640 c-22 -41 -6 -428 18 -431 91 -10 214 196 190 317 -20 97
-172 180 -208 114z m137 -20 c105 -73 75 -266 -59 -372 -74 -59 -74 -60 -75
172 -1 123 1 205 6 215 13 23 84 15 128 -15z"/>
<path d="M13144 784 c-20 -4 -83 -7 -141 -7 -152 -1 -155 -10 -155 -383 0
-286 2 -291 111 -300 78 -7 89 8 89 119 0 104 14 128 54 93 82 -72 163 -133
206 -157 13 -8 36 -23 51 -33 16 -12 38 -20 52 -20 24 1 24 1 -9 13 -52 18
-217 132 -286 197 -60 57 -73 45 -80 -76 -8 -136 -10 -139 -92 -122 -87 18
-83 -1 -80 340 2 305 8 324 106 319 27 -2 102 0 166 4 179 10 249 -6 332 -78
111 -96 81 -161 -124 -271 -74 -39 -73 -43 38 -146 153 -143 143 -128 105
-159 -13 -12 -19 -21 -13 -21 15 0 46 34 46 51 0 15 2 12 -112 117 -108 99
-104 95 -104 108 0 12 37 44 52 44 5 0 25 11 43 24 18 13 35 24 37 24 11 0 78
62 93 85 75 121 -173 272 -385 235z"/>
<path d="M5780 776 c-53 -3 -97 -6 -97 -7 -15 -13 -23 -612 -8 -653 10 -29 62
-52 120 -52 74 0 80 11 83 143 2 118 -8 102 84 125 275 68 376 287 178 390
-108 56 -165 65 -360 54z m271 -25 c200 -81 238 -182 114 -301 -71 -67 -121
-90 -254 -118 -43 -8 -47 -20 -47 -127 0 -128 -5 -137 -77 -131 -109 9 -107 3
-107 379 0 290 0 290 18 303 30 21 298 17 353 -5z"/>
<path d="M5872 656 c-16 -10 -21 -163 -6 -192 32 -62 149 11 162 101 6 39 -16
84 -44 92 -30 8 -98 8 -112 -1z m130 -22 c58 -52 -37 -206 -110 -178 -26 10
-32 176 -6 192 19 11 98 2 116 -14z"/>
<path d="M10503 776 c-149 -6 -143 9 -146 -364 -1 -285 7 -318 84 -315 17 1
18 1 3 6 -83 29 -88 53 -75 430 7 236 5 233 137 234 49 0 116 3 148 5 80 8
126 0 150 -26 47 -51 20 -70 -112 -78 -139 -9 -151 -18 -146 -106 2 -46 2 -46
129 -50 126 -4 126 -4 146 -26 50 -59 24 -75 -134 -86 -127 -9 -140 -14 -147
-50 -4 -20 -1 -112 3 -124 5 -12 46 -15 133 -10 138 7 180 -7 180 -63 0 -31
-74 -47 -230 -50 -40 -1 -72 -4 -70 -6 15 -14 277 8 298 25 14 11 13 51 -3 74
-19 30 -48 35 -178 31 -132 -5 -131 -5 -122 106 3 46 8 48 145 57 130 8 157
18 155 57 -3 58 -26 68 -169 73 -126 4 -126 4 -126 45 1 71 10 80 91 86 179
13 213 30 178 88 -29 46 -56 49 -322 37z"/>
<path d="M6423 767 c-48 -18 -51 -37 -51 -353 0 -335 -7 -310 95 -325 88 -13
91 -10 100 135 5 83 18 99 53 66 56 -51 254 -189 284 -197 11 -3 28 -10 38
-15 27 -13 88 17 95 47 6 23 -9 38 -165 178 -31 28 -55 55 -54 59 3 9 84 63
116 77 16 8 34 22 96 80 66 61 19 159 -108 222 -64 32 -198 42 -370 27 -24 -2
-58 -1 -76 2 -18 3 -42 2 -53 -3z m449 -17 c206 -72 232 -207 59 -302 -151
-82 -148 -76 -72 -146 178 -164 176 -162 166 -179 -26 -50 -99 -41 -193 23
-75 52 -180 129 -197 146 -60 60 -75 45 -83 -83 -8 -121 -4 -116 -79 -110
-100 8 -100 10 -95 354 4 302 9 314 117 303 29 -2 69 -1 89 3 76 16 231 11
288 -9z"/>
<path d="M6633 656 c-52 -8 -62 -25 -68 -116 -7 -95 16 -120 71 -81 9 6 27 13
40 16 90 20 206 114 192 157 -10 31 -124 42 -235 24z m220 -20 c15 -20 15 -20
-15 -52 -39 -43 -143 -103 -179 -104 -9 0 -22 -5 -27 -12 -12 -15 -43 -16 -54
-2 -12 15 1 148 16 163 29 29 239 35 259 7z"/>
<path d="M13109 665 c-56 -16 -58 -19 -64 -106 -7 -94 -2 -101 70 -87 29 5 53
13 53 16 0 3 21 14 47 23 105 38 164 126 105 157 -32 16 -149 15 -211 -3z
m207 -13 c27 -26 25 -36 -9 -70 -25 -25 -101 -70 -119 -70 -4 0 -13 -6 -21
-13 -10 -9 -30 -13 -61 -14 -46 -1 -46 -1 -48 65 -3 83 1 90 63 107 82 22 171
20 195 -5z"/>
<path d="M8510 622 c-7 -14 -23 -51 -34 -81 -12 -31 -25 -62 -28 -68 -14 -27
-58 -135 -68 -165 -6 -18 -22 -62 -35 -100 -43 -116 -31 -158 44 -166 51 -6
85 13 103 57 7 18 20 46 29 63 8 16 15 34 15 40 0 58 218 91 262 41 10 -12 18
-26 18 -32 0 -30 58 -115 78 -115 8 0 4 6 -9 17 -20 15 -69 105 -69 125 0 62
-263 43 -287 -20 -54 -145 -68 -162 -125 -162 -89 0 -95 47 -28 216 24 58 71
172 88 212 50 116 66 157 62 160 -2 2 -9 -8 -16 -22z"/>
<path d="M13971 586 c-9 -6 -64 -119 -75 -155 -11 -36 1 -43 68 -42 82 1 94
12 74 65 -8 21 -20 55 -25 77 -12 42 -28 64 -42 55z m30 -52 c5 -19 14 -47 21
-63 23 -57 15 -67 -56 -69 -71 -3 -76 3 -46 60 8 16 22 47 31 68 21 48 37 49
50 4z"/>
<path d="M8680 566 c-9 -9 -16 -20 -16 -23 0 -3 -11 -30 -25 -60 -43 -92 -39
-103 35 -105 92 -4 111 15 82 80 -6 14 -17 46 -24 71 -14 52 -29 62 -52 37z
m48 -58 c7 -26 17 -58 22 -70 18 -42 -8 -58 -86 -53 -44 4 -50 22 -25 72 10
17 17 35 17 40 0 5 8 21 17 36 24 40 40 33 55 -25z"/>
<path d="M1175 382 c-29 -24 -83 -57 -179 -110 -114 -63 -113 -73 16 -138 132
-66 199 -87 372 -115 105 -16 314 -16 395 1 31 7 68 12 81 12 29 0 166 34 204
50 15 7 44 18 64 26 77 28 152 71 152 85 0 9 -20 29 -50 50 -57 41 -72 54
-109 100 -40 49 -46 49 -164 -9 -241 -117 -407 -124 -573 -24 -24 14 -48 26
-53 26 -5 0 -13 5 -19 12 -36 44 -105 61 -137 34z m67 1 c9 -5 24 -15 32 -23
8 -7 42 -29 76 -47 208 -114 359 -112 607 8 121 59 134 57 188 -22 6 -10 35
-33 63 -52 29 -19 53 -41 54 -49 3 -15 -65 -58 -106 -67 -13 -3 -28 -8 -32
-11 -4 -4 -30 -14 -56 -23 -312 -108 -717 -103 -980 13 -170 74 -191 99 -118
133 23 11 88 49 142 85 109 69 106 68 130 55z"/>
<path d="M10482 90 c12 -2 32 -2 44 0 12 2 2 4 -22 4 -24 0 -34 -2 -22 -4z"/>
</g>
</svg>
